%TF.GenerationSoftware,KiCad,Pcbnew,(6.0.4)*%
%TF.CreationDate,2023-03-10T15:04:28-05:00*%
%TF.ProjectId,Pi_part,50695f70-6172-4742-9e6b-696361645f70,v01*%
%TF.SameCoordinates,Original*%
%TF.FileFunction,Legend,Bot*%
%TF.FilePolarity,Positive*%
%FSLAX46Y46*%
G04 Gerber Fmt 4.6, Leading zero omitted, Abs format (unit mm)*
G04 Created by KiCad (PCBNEW (6.0.4)) date 2023-03-10 15:04:28*
%MOMM*%
%LPD*%
G01*
G04 APERTURE LIST*
%ADD10C,0.150000*%
%ADD11C,0.120000*%
G04 APERTURE END LIST*
D10*
%TO.C,J2*%
X146525882Y-116622615D02*
X147240168Y-116622615D01*
X147383025Y-116574996D01*
X147478263Y-116479758D01*
X147525882Y-116336901D01*
X147525882Y-116241663D01*
X146621121Y-117051187D02*
X146573502Y-117098806D01*
X146525882Y-117194044D01*
X146525882Y-117432139D01*
X146573502Y-117527377D01*
X146621121Y-117574996D01*
X146716359Y-117622615D01*
X146811597Y-117622615D01*
X146954454Y-117574996D01*
X147525882Y-117003568D01*
X147525882Y-117622615D01*
D11*
X87503502Y-112395949D02*
X87503502Y-121515949D01*
X141473502Y-122905949D02*
X140473502Y-122905949D01*
X114793502Y-120205949D02*
X114793502Y-121515949D01*
X87503502Y-121515949D02*
X146183502Y-121515949D01*
X118893502Y-120205949D02*
X144883502Y-120205949D01*
X146183502Y-121515949D02*
X146183502Y-112395949D01*
X146183502Y-112395949D02*
X87503502Y-112395949D01*
X140973502Y-121905949D02*
X141473502Y-122905949D01*
X140473502Y-122905949D02*
X140973502Y-121905949D01*
X118893502Y-121515949D02*
X118893502Y-120205949D01*
X114793502Y-120205949D02*
X114793502Y-120205949D01*
X144883502Y-113705949D02*
X88803502Y-113705949D01*
X144883502Y-120205949D02*
X144883502Y-113705949D01*
X88803502Y-113705949D02*
X88803502Y-120205949D01*
X88803502Y-120205949D02*
X114793502Y-120205949D01*
%TD*%
M02*
