M48
; DRILL file {KiCad (6.0.4)} date Fri Mar 10 21:17:08 2023
; FORMAT={-:-/ absolute / metric / decimal}
; #@! TF.CreationDate,2023-03-10T21:17:08-05:00
; #@! TF.GenerationSoftware,Kicad,Pcbnew,(6.0.4)
; #@! TF.FileFunction,Plated,1,2,PTH
FMAT,2
METRIC
; #@! TA.AperFunction,Plated,PTH,ViaDrill
T1C0.400
; #@! TA.AperFunction,Plated,PTH,ComponentDrill
T2C1.000
; #@! TA.AperFunction,Plated,PTH,ComponentDrill
T3C1.090
; #@! TA.AperFunction,Plated,PTH,ComponentDrill
T4C1.190
%
G90
G05
T1
X111.704Y-127.416
X118.184Y-108.956
X118.534Y-123.376
X129.884Y-101.736
X135.024Y-89.696
X136.204Y-108.946
X142.134Y-94.736
X142.764Y-108.936
X147.784Y-104.906
X155.084Y-108.936
X170.284Y-87.186
X185.184Y-112.876
X185.954Y-124.466
X195.474Y-112.876
T2
X92.714Y-115.686
X92.714Y-118.226
X95.254Y-115.686
X95.254Y-118.226
X97.794Y-115.686
X97.794Y-118.226
X100.334Y-115.686
X100.334Y-118.226
X102.874Y-115.686
X102.874Y-118.226
X105.414Y-115.686
X105.414Y-118.226
X107.954Y-115.686
X107.954Y-118.226
X110.494Y-115.686
X110.494Y-118.226
X113.034Y-115.686
X113.034Y-118.226
X115.574Y-115.686
X115.574Y-118.226
X118.114Y-115.686
X118.114Y-118.226
X120.654Y-115.686
X120.654Y-118.226
X123.194Y-115.686
X123.194Y-118.226
X125.734Y-115.686
X125.734Y-118.226
X128.274Y-115.686
X128.274Y-118.226
X130.814Y-115.686
X130.814Y-118.226
X133.354Y-115.686
X133.354Y-118.226
X135.894Y-115.686
X135.894Y-118.226
X138.434Y-115.686
X138.434Y-118.226
X140.974Y-115.686
X140.974Y-118.226
X188.249Y-87.126
X188.249Y-89.666
X188.249Y-92.206
X188.249Y-94.746
X188.249Y-97.286
X188.249Y-99.826
X188.249Y-102.366
X188.249Y-104.906
X188.249Y-107.446
X190.789Y-87.126
X190.789Y-89.666
X190.789Y-92.206
X190.789Y-94.746
X190.789Y-97.286
X190.789Y-99.826
X190.789Y-102.366
X190.789Y-104.906
X190.789Y-107.446
T3
X92.984Y-81.126
X95.524Y-81.126
X98.064Y-81.126
X100.604Y-81.126
X103.144Y-81.126
X105.684Y-81.126
X108.224Y-81.126
X110.764Y-81.126
X113.304Y-81.126
X115.844Y-81.126
X118.384Y-81.126
X120.924Y-81.126
X123.464Y-81.126
X126.004Y-81.126
X128.544Y-81.126
X131.084Y-81.126
T4
X215.182Y-120.244
X215.182Y-122.784
T0
M30
