M48
; DRILL file {KiCad (6.0.4)} date Fri Mar 10 21:16:41 2023
; FORMAT={-:-/ absolute / metric / decimal}
; #@! TF.CreationDate,2023-03-10T21:16:41-05:00
; #@! TF.GenerationSoftware,Kicad,Pcbnew,(6.0.4)
; #@! TF.FileFunction,Plated,1,2,PTH
FMAT,2
METRIC
; #@! TA.AperFunction,Plated,PTH,ViaDrill
T1C0.400
; #@! TA.AperFunction,Plated,PTH,ComponentDrill
T2C0.650
; #@! TA.AperFunction,Plated,PTH,ComponentDrill
T3C0.700
; #@! TA.AperFunction,Plated,PTH,ComponentDrill
T4C0.800
; #@! TA.AperFunction,Plated,PTH,ComponentDrill
T5C1.020
; #@! TA.AperFunction,Plated,PTH,ComponentDrill
T6C1.190
; #@! TA.AperFunction,Plated,PTH,ComponentDrill
T7C1.500
%
G90
G05
T1
X327.041Y-343.818
X355.041Y-342.818
X364.041Y-339.818
X378.041Y-336.818
X385.041Y-333.818
X403.041Y-332.818
X413.041Y-331.818
X551.988Y-211.22
X557.99Y-269.008
X559.831Y-286.798
X560.77Y-274.188
X560.868Y-205.92
X560.898Y-209.24
X561.745Y-274.147
X564.04Y-272.818
X567.04Y-274.818
X567.04Y-286.818
X567.988Y-193.25
X568.04Y-284.498
X572.898Y-195.04
X574.04Y-291.818
X574.3Y-270.978
X575.04Y-291.818
X576.04Y-291.818
X576.211Y-288.648
X577.04Y-291.818
X581.04Y-291.818
X582.04Y-291.818
X582.3Y-257.308
X582.351Y-267.048
X583.04Y-291.818
X583.757Y-286.393
X583.789Y-285.385
X583.809Y-284.35
X584.04Y-266.818
X584.04Y-291.818
X585.04Y-291.818
X585.04Y-313.818
X586.04Y-291.818
X586.04Y-308.818
X587.04Y-291.818
X587.04Y-302.818
X587.562Y-274.148
X588.04Y-291.818
X588.04Y-296.818
X590.81Y-286.398
X590.812Y-294.824
X591.04Y-275.818
X591.04Y-282.818
X592.77Y-268.968
X612.27Y-283.518
T4
X533.048Y-192.722
X535.048Y-192.722
X537.048Y-192.722
X539.048Y-192.722
X601.61Y-291.268
X601.61Y-293.808
X601.61Y-296.348
X601.61Y-298.888
X609.479Y-291.268
X609.479Y-293.808
X609.479Y-296.348
X609.479Y-298.888
T5
X549.665Y-279.288
X549.665Y-281.828
X549.665Y-284.368
T6
X520.192Y-190.52
X522.732Y-190.52
T7
X223.23Y-215.278
X223.23Y-236.278
X225.81Y-257.038
X229.581Y-212.738
X229.581Y-233.738
X230.69Y-297.358
X232.16Y-254.498
X232.77Y-277.198
X237.04Y-294.818
X239.12Y-274.658
X242.23Y-215.278
X242.69Y-236.358
X247.81Y-257.038
X248.581Y-212.738
X249.04Y-233.818
X254.16Y-254.498
X260.15Y-297.438
X261.231Y-215.278
X261.231Y-277.278
X262.428Y-236.478
X266.5Y-294.898
X266.81Y-257.038
X267.58Y-212.738
X267.58Y-274.738
X268.778Y-233.938
X273.161Y-254.498
X280.231Y-215.278
X280.77Y-277.198
X281.231Y-236.278
X285.81Y-257.038
X286.58Y-212.738
X286.69Y-297.358
X287.12Y-274.658
X287.58Y-233.738
X292.161Y-254.498
X293.041Y-294.818
X299.231Y-215.278
X300.168Y-236.438
X300.231Y-277.278
X305.351Y-256.958
X305.58Y-212.738
X306.518Y-233.898
X306.58Y-274.738
X311.7Y-254.418
X318.231Y-215.278
X319.231Y-277.278
X319.69Y-236.358
X324.58Y-212.738
X325.286Y-256.958
X325.58Y-274.738
X326.041Y-233.818
X331.635Y-254.418
X337.231Y-215.278
X338.69Y-277.358
X339.231Y-236.358
X343.58Y-212.738
X344.825Y-256.878
X345.041Y-274.818
X345.58Y-233.818
X351.175Y-254.338
X356.231Y-215.198
X357.69Y-277.358
X358.231Y-236.278
X360.69Y-297.118
X362.58Y-212.658
X364.041Y-274.818
X364.297Y-256.958
X364.58Y-233.738
X367.041Y-294.578
X370.647Y-254.418
X375.69Y-215.358
X376.69Y-277.358
X377.231Y-236.278
X382.041Y-212.818
X383.041Y-274.818
X383.58Y-233.738
X383.69Y-257.358
X390.041Y-254.818
X394.69Y-215.358
X395.69Y-277.358
X396.231Y-236.278
X401.041Y-212.818
X402.041Y-274.818
X402.58Y-233.738
X403.297Y-256.958
X409.647Y-254.418
X414.231Y-215.278
X414.69Y-277.358
X415.83Y-236.278
X420.58Y-212.738
X421.041Y-274.818
X422.18Y-233.738
X422.297Y-256.958
X428.647Y-254.418
X433.69Y-215.358
X433.69Y-277.358
X434.69Y-297.358
X434.948Y-236.398
X440.04Y-212.818
X440.04Y-274.818
X441.04Y-294.818
X441.298Y-233.858
X441.35Y-256.958
X447.7Y-254.418
X453.231Y-215.278
X453.83Y-236.278
X458.69Y-297.358
X459.58Y-212.738
X460.18Y-233.738
X465.04Y-294.818
X465.15Y-277.438
X471.5Y-274.898
X472.69Y-215.358
X472.837Y-256.558
X478.231Y-236.278
X479.04Y-212.818
X479.187Y-254.018
X484.58Y-233.738
X488.69Y-298.358
X495.04Y-295.818
X497.23Y-215.278
X502.23Y-236.278
X503.58Y-212.738
X504.69Y-256.958
X507.69Y-277.358
X508.23Y-298.278
X508.58Y-233.738
X511.04Y-254.418
X514.04Y-274.818
X514.581Y-295.738
X528.231Y-298.278
X534.581Y-295.738
T2
G00X567.653Y-190.308
M15
G01X567.653Y-190.707
M16
G05
G00X572.493Y-190.308
M15
G01X572.493Y-190.707
M16
G05
T3
G00X567.343Y-187.257
M15
G01X567.343Y-187.757
M16
G05
G00X572.803Y-187.257
M15
G01X572.803Y-187.757
M16
G05
T0
M30
