M48
; DRILL file {KiCad (6.0.4)} date Fri Mar 10 21:16:41 2023
; FORMAT={-:-/ absolute / metric / decimal}
; #@! TF.CreationDate,2023-03-10T21:16:41-05:00
; #@! TF.GenerationSoftware,Kicad,Pcbnew,(6.0.4)
; #@! TF.FileFunction,NonPlated,1,2,NPTH
FMAT,2
METRIC
; #@! TA.AperFunction,NonPlated,NPTH,ComponentDrill
T1C1.700
; #@! TA.AperFunction,NonPlated,NPTH,ComponentDrill
T2C3.050
; #@! TA.AperFunction,NonPlated,NPTH,ComponentDrill
T3C4.000
%
G90
G05
T1
X221.96Y-217.818
X221.96Y-238.818
X224.54Y-259.578
X229.42Y-299.898
X232.12Y-217.818
X232.12Y-238.818
X234.7Y-259.578
X239.581Y-299.898
X240.96Y-217.818
X241.42Y-238.898
X246.54Y-259.578
X251.12Y-217.818
X251.581Y-238.898
X256.7Y-259.578
X258.88Y-299.978
X259.96Y-217.818
X259.96Y-279.818
X261.158Y-239.018
X265.541Y-259.578
X269.041Y-299.978
X270.12Y-217.818
X270.12Y-279.818
X271.318Y-239.018
X275.7Y-259.578
X278.96Y-217.818
X279.5Y-279.738
X279.96Y-238.818
X284.541Y-259.578
X285.421Y-299.898
X289.12Y-217.818
X289.661Y-279.738
X290.12Y-238.818
X294.7Y-259.578
X295.58Y-299.898
X297.96Y-217.818
X298.898Y-238.978
X298.96Y-279.818
X304.08Y-259.498
X308.12Y-217.818
X309.058Y-238.978
X309.12Y-279.818
X314.24Y-259.498
X316.96Y-217.818
X317.96Y-279.818
X318.421Y-238.898
X324.015Y-259.498
X327.12Y-217.818
X328.12Y-279.818
X328.58Y-238.898
X334.175Y-259.498
X335.96Y-217.818
X337.421Y-279.898
X337.96Y-238.898
X343.555Y-259.418
X346.12Y-217.818
X347.58Y-279.898
X348.12Y-238.898
X353.715Y-259.418
X354.96Y-217.738
X356.421Y-279.898
X356.96Y-238.818
X359.421Y-299.658
X363.027Y-259.498
X365.12Y-217.738
X366.58Y-279.898
X367.12Y-238.818
X369.58Y-299.658
X373.187Y-259.498
X374.421Y-217.898
X375.421Y-279.898
X375.96Y-238.818
X382.421Y-259.898
X384.58Y-217.898
X385.58Y-279.898
X386.12Y-238.818
X392.58Y-259.898
X393.421Y-217.898
X394.421Y-279.898
X394.96Y-238.818
X402.027Y-259.498
X403.58Y-217.898
X404.58Y-279.898
X405.12Y-238.818
X412.187Y-259.498
X412.96Y-217.818
X413.421Y-279.898
X414.56Y-238.818
X421.027Y-259.498
X423.12Y-217.818
X423.58Y-279.898
X424.72Y-238.818
X431.187Y-259.498
X432.421Y-217.898
X432.421Y-279.898
X433.421Y-299.898
X433.678Y-238.938
X440.08Y-259.498
X442.58Y-217.898
X442.58Y-279.898
X443.58Y-299.898
X443.838Y-238.938
X450.24Y-259.498
X451.96Y-217.818
X452.56Y-238.818
X457.421Y-299.898
X462.12Y-217.818
X462.72Y-238.818
X463.88Y-279.978
X467.58Y-299.898
X471.421Y-217.898
X471.567Y-259.098
X474.04Y-279.978
X476.96Y-238.818
X481.58Y-217.898
X481.727Y-259.098
X487.12Y-238.818
X487.421Y-300.898
X495.96Y-217.818
X497.58Y-300.898
X500.96Y-238.818
X503.421Y-259.498
X506.12Y-217.818
X506.421Y-279.898
X506.96Y-300.818
X511.12Y-238.818
X513.581Y-259.498
X516.581Y-279.898
X517.12Y-300.818
X526.961Y-300.818
X537.12Y-300.818
T2
X314.5Y-292.658
X414.5Y-292.658
X457.06Y-272.978
X464.747Y-252.098
X480.861Y-272.978
X488.547Y-252.098
T3
X227.04Y-217.818
X227.04Y-238.818
X229.62Y-259.578
X234.5Y-299.898
X236.581Y-279.738
X246.04Y-217.818
X246.5Y-238.898
X251.62Y-259.578
X263.96Y-299.978
X265.041Y-217.818
X265.041Y-279.818
X266.238Y-239.018
X270.62Y-259.578
X284.041Y-217.818
X284.58Y-279.738
X285.041Y-238.818
X289.62Y-259.578
X290.5Y-299.898
X303.041Y-217.818
X303.978Y-238.978
X304.041Y-279.818
X309.161Y-259.498
X314.5Y-307.898
X322.041Y-217.818
X323.041Y-279.818
X323.5Y-238.898
X329.095Y-259.498
X341.041Y-217.818
X342.5Y-279.898
X343.041Y-238.898
X348.635Y-259.418
X360.041Y-217.738
X361.5Y-279.898
X362.041Y-238.818
X364.5Y-299.658
X368.107Y-259.498
X379.5Y-217.898
X380.5Y-279.898
X381.041Y-238.818
X387.5Y-259.898
X398.5Y-217.898
X399.5Y-279.898
X400.041Y-238.818
X407.107Y-259.498
X414.5Y-307.898
X418.041Y-217.818
X418.5Y-279.898
X419.64Y-238.818
X426.107Y-259.498
X437.5Y-217.898
X437.5Y-279.898
X438.5Y-299.898
X438.758Y-238.938
X445.16Y-259.498
X457.04Y-217.818
X457.06Y-288.218
X457.64Y-238.818
X462.5Y-299.898
X464.747Y-267.338
X468.96Y-279.978
X476.5Y-217.898
X476.647Y-259.098
X480.861Y-288.218
X482.04Y-238.818
X488.547Y-267.338
X492.5Y-300.898
X501.04Y-217.818
X506.04Y-238.818
X508.5Y-259.498
X511.5Y-279.898
X512.04Y-300.818
X532.04Y-300.818
T0
M30
