%TF.GenerationSoftware,KiCad,Pcbnew,(6.0.4)*%
%TF.CreationDate,2023-03-10T15:04:03-05:00*%
%TF.ProjectId,main_board,6d61696e-5f62-46f6-9172-642e6b696361,v01*%
%TF.SameCoordinates,Original*%
%TF.FileFunction,Legend,Bot*%
%TF.FilePolarity,Positive*%
%FSLAX46Y46*%
G04 Gerber Fmt 4.6, Leading zero omitted, Abs format (unit mm)*
G04 Created by KiCad (PCBNEW (6.0.4)) date 2023-03-10 15:04:03*
%MOMM*%
%LPD*%
G01*
G04 APERTURE LIST*
%ADD10C,0.150000*%
%ADD11C,0.120000*%
G04 APERTURE END LIST*
D10*
%TO.C,R24*%
X561720857Y-294620380D02*
X562054190Y-294144190D01*
X562292285Y-294620380D02*
X562292285Y-293620380D01*
X561911333Y-293620380D01*
X561816095Y-293668000D01*
X561768476Y-293715619D01*
X561720857Y-293810857D01*
X561720857Y-293953714D01*
X561768476Y-294048952D01*
X561816095Y-294096571D01*
X561911333Y-294144190D01*
X562292285Y-294144190D01*
X561339904Y-293715619D02*
X561292285Y-293668000D01*
X561197047Y-293620380D01*
X560958952Y-293620380D01*
X560863714Y-293668000D01*
X560816095Y-293715619D01*
X560768476Y-293810857D01*
X560768476Y-293906095D01*
X560816095Y-294048952D01*
X561387523Y-294620380D01*
X560768476Y-294620380D01*
X559911333Y-293953714D02*
X559911333Y-294620380D01*
X560149428Y-293572761D02*
X560387523Y-294287047D01*
X559768476Y-294287047D01*
%TO.C,D46*%
X286064785Y-286270380D02*
X286064785Y-285270380D01*
X285826690Y-285270380D01*
X285683833Y-285318000D01*
X285588595Y-285413238D01*
X285540976Y-285508476D01*
X285493357Y-285698952D01*
X285493357Y-285841809D01*
X285540976Y-286032285D01*
X285588595Y-286127523D01*
X285683833Y-286222761D01*
X285826690Y-286270380D01*
X286064785Y-286270380D01*
X284636214Y-285603714D02*
X284636214Y-286270380D01*
X284874309Y-285222761D02*
X285112404Y-285937047D01*
X284493357Y-285937047D01*
X283683833Y-285270380D02*
X283874309Y-285270380D01*
X283969547Y-285318000D01*
X284017166Y-285365619D01*
X284112404Y-285508476D01*
X284160023Y-285698952D01*
X284160023Y-286079904D01*
X284112404Y-286175142D01*
X284064785Y-286222761D01*
X283969547Y-286270380D01*
X283779071Y-286270380D01*
X283683833Y-286222761D01*
X283636214Y-286175142D01*
X283588595Y-286079904D01*
X283588595Y-285841809D01*
X283636214Y-285746571D01*
X283683833Y-285698952D01*
X283779071Y-285651333D01*
X283969547Y-285651333D01*
X284064785Y-285698952D01*
X284112404Y-285746571D01*
X284160023Y-285841809D01*
%TO.C,D29*%
X506254785Y-245270380D02*
X506254785Y-244270380D01*
X506016690Y-244270380D01*
X505873833Y-244318000D01*
X505778595Y-244413238D01*
X505730976Y-244508476D01*
X505683357Y-244698952D01*
X505683357Y-244841809D01*
X505730976Y-245032285D01*
X505778595Y-245127523D01*
X505873833Y-245222761D01*
X506016690Y-245270380D01*
X506254785Y-245270380D01*
X505302404Y-244365619D02*
X505254785Y-244318000D01*
X505159547Y-244270380D01*
X504921452Y-244270380D01*
X504826214Y-244318000D01*
X504778595Y-244365619D01*
X504730976Y-244460857D01*
X504730976Y-244556095D01*
X504778595Y-244698952D01*
X505350023Y-245270380D01*
X504730976Y-245270380D01*
X504254785Y-245270380D02*
X504064309Y-245270380D01*
X503969071Y-245222761D01*
X503921452Y-245175142D01*
X503826214Y-245032285D01*
X503778595Y-244841809D01*
X503778595Y-244460857D01*
X503826214Y-244365619D01*
X503873833Y-244318000D01*
X503969071Y-244270380D01*
X504159547Y-244270380D01*
X504254785Y-244318000D01*
X504302404Y-244365619D01*
X504350023Y-244460857D01*
X504350023Y-244698952D01*
X504302404Y-244794190D01*
X504254785Y-244841809D01*
X504159547Y-244889428D01*
X503969071Y-244889428D01*
X503873833Y-244841809D01*
X503826214Y-244794190D01*
X503778595Y-244698952D01*
%TO.C,D55*%
X452379785Y-286150380D02*
X452379785Y-285150380D01*
X452141690Y-285150380D01*
X451998833Y-285198000D01*
X451903595Y-285293238D01*
X451855976Y-285388476D01*
X451808357Y-285578952D01*
X451808357Y-285721809D01*
X451855976Y-285912285D01*
X451903595Y-286007523D01*
X451998833Y-286102761D01*
X452141690Y-286150380D01*
X452379785Y-286150380D01*
X450903595Y-285150380D02*
X451379785Y-285150380D01*
X451427404Y-285626571D01*
X451379785Y-285578952D01*
X451284547Y-285531333D01*
X451046452Y-285531333D01*
X450951214Y-285578952D01*
X450903595Y-285626571D01*
X450855976Y-285721809D01*
X450855976Y-285959904D01*
X450903595Y-286055142D01*
X450951214Y-286102761D01*
X451046452Y-286150380D01*
X451284547Y-286150380D01*
X451379785Y-286102761D01*
X451427404Y-286055142D01*
X449951214Y-285150380D02*
X450427404Y-285150380D01*
X450475023Y-285626571D01*
X450427404Y-285578952D01*
X450332166Y-285531333D01*
X450094071Y-285531333D01*
X449998833Y-285578952D01*
X449951214Y-285626571D01*
X449903595Y-285721809D01*
X449903595Y-285959904D01*
X449951214Y-286055142D01*
X449998833Y-286102761D01*
X450094071Y-286150380D01*
X450332166Y-286150380D01*
X450427404Y-286102761D01*
X450475023Y-286055142D01*
%TO.C,R28*%
X561683357Y-320620380D02*
X562016690Y-320144190D01*
X562254785Y-320620380D02*
X562254785Y-319620380D01*
X561873833Y-319620380D01*
X561778595Y-319668000D01*
X561730976Y-319715619D01*
X561683357Y-319810857D01*
X561683357Y-319953714D01*
X561730976Y-320048952D01*
X561778595Y-320096571D01*
X561873833Y-320144190D01*
X562254785Y-320144190D01*
X561302404Y-319715619D02*
X561254785Y-319668000D01*
X561159547Y-319620380D01*
X560921452Y-319620380D01*
X560826214Y-319668000D01*
X560778595Y-319715619D01*
X560730976Y-319810857D01*
X560730976Y-319906095D01*
X560778595Y-320048952D01*
X561350023Y-320620380D01*
X560730976Y-320620380D01*
X560159547Y-320048952D02*
X560254785Y-320001333D01*
X560302404Y-319953714D01*
X560350023Y-319858476D01*
X560350023Y-319810857D01*
X560302404Y-319715619D01*
X560254785Y-319668000D01*
X560159547Y-319620380D01*
X559969071Y-319620380D01*
X559873833Y-319668000D01*
X559826214Y-319715619D01*
X559778595Y-319810857D01*
X559778595Y-319858476D01*
X559826214Y-319953714D01*
X559873833Y-320001333D01*
X559969071Y-320048952D01*
X560159547Y-320048952D01*
X560254785Y-320096571D01*
X560302404Y-320144190D01*
X560350023Y-320239428D01*
X560350023Y-320429904D01*
X560302404Y-320525142D01*
X560254785Y-320572761D01*
X560159547Y-320620380D01*
X559969071Y-320620380D01*
X559873833Y-320572761D01*
X559826214Y-320525142D01*
X559778595Y-320429904D01*
X559778595Y-320239428D01*
X559826214Y-320144190D01*
X559873833Y-320096571D01*
X559969071Y-320048952D01*
%TO.C,D50*%
X363254785Y-286270380D02*
X363254785Y-285270380D01*
X363016690Y-285270380D01*
X362873833Y-285318000D01*
X362778595Y-285413238D01*
X362730976Y-285508476D01*
X362683357Y-285698952D01*
X362683357Y-285841809D01*
X362730976Y-286032285D01*
X362778595Y-286127523D01*
X362873833Y-286222761D01*
X363016690Y-286270380D01*
X363254785Y-286270380D01*
X361778595Y-285270380D02*
X362254785Y-285270380D01*
X362302404Y-285746571D01*
X362254785Y-285698952D01*
X362159547Y-285651333D01*
X361921452Y-285651333D01*
X361826214Y-285698952D01*
X361778595Y-285746571D01*
X361730976Y-285841809D01*
X361730976Y-286079904D01*
X361778595Y-286175142D01*
X361826214Y-286222761D01*
X361921452Y-286270380D01*
X362159547Y-286270380D01*
X362254785Y-286222761D01*
X362302404Y-286175142D01*
X361111928Y-285270380D02*
X361016690Y-285270380D01*
X360921452Y-285318000D01*
X360873833Y-285365619D01*
X360826214Y-285460857D01*
X360778595Y-285651333D01*
X360778595Y-285889428D01*
X360826214Y-286079904D01*
X360873833Y-286175142D01*
X360921452Y-286222761D01*
X361016690Y-286270380D01*
X361111928Y-286270380D01*
X361207166Y-286222761D01*
X361254785Y-286175142D01*
X361302404Y-286079904D01*
X361350023Y-285889428D01*
X361350023Y-285651333D01*
X361302404Y-285460857D01*
X361254785Y-285365619D01*
X361207166Y-285318000D01*
X361111928Y-285270380D01*
%TO.C,D6*%
X341778595Y-224270380D02*
X341778595Y-223270380D01*
X341540500Y-223270380D01*
X341397642Y-223318000D01*
X341302404Y-223413238D01*
X341254785Y-223508476D01*
X341207166Y-223698952D01*
X341207166Y-223841809D01*
X341254785Y-224032285D01*
X341302404Y-224127523D01*
X341397642Y-224222761D01*
X341540500Y-224270380D01*
X341778595Y-224270380D01*
X340350023Y-223270380D02*
X340540500Y-223270380D01*
X340635738Y-223318000D01*
X340683357Y-223365619D01*
X340778595Y-223508476D01*
X340826214Y-223698952D01*
X340826214Y-224079904D01*
X340778595Y-224175142D01*
X340730976Y-224222761D01*
X340635738Y-224270380D01*
X340445261Y-224270380D01*
X340350023Y-224222761D01*
X340302404Y-224175142D01*
X340254785Y-224079904D01*
X340254785Y-223841809D01*
X340302404Y-223746571D01*
X340350023Y-223698952D01*
X340445261Y-223651333D01*
X340635738Y-223651333D01*
X340730976Y-223698952D01*
X340778595Y-223746571D01*
X340826214Y-223841809D01*
%TO.C,D9*%
X399778595Y-224270380D02*
X399778595Y-223270380D01*
X399540500Y-223270380D01*
X399397642Y-223318000D01*
X399302404Y-223413238D01*
X399254785Y-223508476D01*
X399207166Y-223698952D01*
X399207166Y-223841809D01*
X399254785Y-224032285D01*
X399302404Y-224127523D01*
X399397642Y-224222761D01*
X399540500Y-224270380D01*
X399778595Y-224270380D01*
X398730976Y-224270380D02*
X398540500Y-224270380D01*
X398445261Y-224222761D01*
X398397642Y-224175142D01*
X398302404Y-224032285D01*
X398254785Y-223841809D01*
X398254785Y-223460857D01*
X398302404Y-223365619D01*
X398350023Y-223318000D01*
X398445261Y-223270380D01*
X398635738Y-223270380D01*
X398730976Y-223318000D01*
X398778595Y-223365619D01*
X398826214Y-223460857D01*
X398826214Y-223698952D01*
X398778595Y-223794190D01*
X398730976Y-223841809D01*
X398635738Y-223889428D01*
X398445261Y-223889428D01*
X398350023Y-223841809D01*
X398302404Y-223794190D01*
X398254785Y-223698952D01*
%TO.C,D14*%
X496254785Y-224270380D02*
X496254785Y-223270380D01*
X496016690Y-223270380D01*
X495873833Y-223318000D01*
X495778595Y-223413238D01*
X495730976Y-223508476D01*
X495683357Y-223698952D01*
X495683357Y-223841809D01*
X495730976Y-224032285D01*
X495778595Y-224127523D01*
X495873833Y-224222761D01*
X496016690Y-224270380D01*
X496254785Y-224270380D01*
X494730976Y-224270380D02*
X495302404Y-224270380D01*
X495016690Y-224270380D02*
X495016690Y-223270380D01*
X495111928Y-223413238D01*
X495207166Y-223508476D01*
X495302404Y-223556095D01*
X493873833Y-223603714D02*
X493873833Y-224270380D01*
X494111928Y-223222761D02*
X494350023Y-223937047D01*
X493730976Y-223937047D01*
%TO.C,D11*%
X439254785Y-224270380D02*
X439254785Y-223270380D01*
X439016690Y-223270380D01*
X438873833Y-223318000D01*
X438778595Y-223413238D01*
X438730976Y-223508476D01*
X438683357Y-223698952D01*
X438683357Y-223841809D01*
X438730976Y-224032285D01*
X438778595Y-224127523D01*
X438873833Y-224222761D01*
X439016690Y-224270380D01*
X439254785Y-224270380D01*
X437730976Y-224270380D02*
X438302404Y-224270380D01*
X438016690Y-224270380D02*
X438016690Y-223270380D01*
X438111928Y-223413238D01*
X438207166Y-223508476D01*
X438302404Y-223556095D01*
X436778595Y-224270380D02*
X437350023Y-224270380D01*
X437064309Y-224270380D02*
X437064309Y-223270380D01*
X437159547Y-223413238D01*
X437254785Y-223508476D01*
X437350023Y-223556095D01*
%TO.C,D58*%
X263064785Y-306270380D02*
X263064785Y-305270380D01*
X262826690Y-305270380D01*
X262683833Y-305318000D01*
X262588595Y-305413238D01*
X262540976Y-305508476D01*
X262493357Y-305698952D01*
X262493357Y-305841809D01*
X262540976Y-306032285D01*
X262588595Y-306127523D01*
X262683833Y-306222761D01*
X262826690Y-306270380D01*
X263064785Y-306270380D01*
X261588595Y-305270380D02*
X262064785Y-305270380D01*
X262112404Y-305746571D01*
X262064785Y-305698952D01*
X261969547Y-305651333D01*
X261731452Y-305651333D01*
X261636214Y-305698952D01*
X261588595Y-305746571D01*
X261540976Y-305841809D01*
X261540976Y-306079904D01*
X261588595Y-306175142D01*
X261636214Y-306222761D01*
X261731452Y-306270380D01*
X261969547Y-306270380D01*
X262064785Y-306222761D01*
X262112404Y-306175142D01*
X260969547Y-305698952D02*
X261064785Y-305651333D01*
X261112404Y-305603714D01*
X261160023Y-305508476D01*
X261160023Y-305460857D01*
X261112404Y-305365619D01*
X261064785Y-305318000D01*
X260969547Y-305270380D01*
X260779071Y-305270380D01*
X260683833Y-305318000D01*
X260636214Y-305365619D01*
X260588595Y-305460857D01*
X260588595Y-305508476D01*
X260636214Y-305603714D01*
X260683833Y-305651333D01*
X260779071Y-305698952D01*
X260969547Y-305698952D01*
X261064785Y-305746571D01*
X261112404Y-305794190D01*
X261160023Y-305889428D01*
X261160023Y-306079904D01*
X261112404Y-306175142D01*
X261064785Y-306222761D01*
X260969547Y-306270380D01*
X260779071Y-306270380D01*
X260683833Y-306222761D01*
X260636214Y-306175142D01*
X260588595Y-306079904D01*
X260588595Y-305889428D01*
X260636214Y-305794190D01*
X260683833Y-305746571D01*
X260779071Y-305698952D01*
%TO.C,C9*%
X589077642Y-278651333D02*
X589125261Y-278603714D01*
X589172880Y-278460857D01*
X589172880Y-278365619D01*
X589125261Y-278222761D01*
X589030023Y-278127523D01*
X588934785Y-278079904D01*
X588744309Y-278032285D01*
X588601452Y-278032285D01*
X588410976Y-278079904D01*
X588315738Y-278127523D01*
X588220500Y-278222761D01*
X588172880Y-278365619D01*
X588172880Y-278460857D01*
X588220500Y-278603714D01*
X588268119Y-278651333D01*
X589172880Y-279127523D02*
X589172880Y-279318000D01*
X589125261Y-279413238D01*
X589077642Y-279460857D01*
X588934785Y-279556095D01*
X588744309Y-279603714D01*
X588363357Y-279603714D01*
X588268119Y-279556095D01*
X588220500Y-279508476D01*
X588172880Y-279413238D01*
X588172880Y-279222761D01*
X588220500Y-279127523D01*
X588268119Y-279079904D01*
X588363357Y-279032285D01*
X588601452Y-279032285D01*
X588696690Y-279079904D01*
X588744309Y-279127523D01*
X588791928Y-279222761D01*
X588791928Y-279413238D01*
X588744309Y-279508476D01*
X588696690Y-279556095D01*
X588601452Y-279603714D01*
%TO.C,D21*%
X344254785Y-245270380D02*
X344254785Y-244270380D01*
X344016690Y-244270380D01*
X343873833Y-244318000D01*
X343778595Y-244413238D01*
X343730976Y-244508476D01*
X343683357Y-244698952D01*
X343683357Y-244841809D01*
X343730976Y-245032285D01*
X343778595Y-245127523D01*
X343873833Y-245222761D01*
X344016690Y-245270380D01*
X344254785Y-245270380D01*
X343302404Y-244365619D02*
X343254785Y-244318000D01*
X343159547Y-244270380D01*
X342921452Y-244270380D01*
X342826214Y-244318000D01*
X342778595Y-244365619D01*
X342730976Y-244460857D01*
X342730976Y-244556095D01*
X342778595Y-244698952D01*
X343350023Y-245270380D01*
X342730976Y-245270380D01*
X341778595Y-245270380D02*
X342350023Y-245270380D01*
X342064309Y-245270380D02*
X342064309Y-244270380D01*
X342159547Y-244413238D01*
X342254785Y-244508476D01*
X342350023Y-244556095D01*
%TO.C,D60*%
X326602285Y-306300380D02*
X326602285Y-305300380D01*
X326364190Y-305300380D01*
X326221333Y-305348000D01*
X326126095Y-305443238D01*
X326078476Y-305538476D01*
X326030857Y-305728952D01*
X326030857Y-305871809D01*
X326078476Y-306062285D01*
X326126095Y-306157523D01*
X326221333Y-306252761D01*
X326364190Y-306300380D01*
X326602285Y-306300380D01*
X325173714Y-305300380D02*
X325364190Y-305300380D01*
X325459428Y-305348000D01*
X325507047Y-305395619D01*
X325602285Y-305538476D01*
X325649904Y-305728952D01*
X325649904Y-306109904D01*
X325602285Y-306205142D01*
X325554666Y-306252761D01*
X325459428Y-306300380D01*
X325268952Y-306300380D01*
X325173714Y-306252761D01*
X325126095Y-306205142D01*
X325078476Y-306109904D01*
X325078476Y-305871809D01*
X325126095Y-305776571D01*
X325173714Y-305728952D01*
X325268952Y-305681333D01*
X325459428Y-305681333D01*
X325554666Y-305728952D01*
X325602285Y-305776571D01*
X325649904Y-305871809D01*
X324459428Y-305300380D02*
X324364190Y-305300380D01*
X324268952Y-305348000D01*
X324221333Y-305395619D01*
X324173714Y-305490857D01*
X324126095Y-305681333D01*
X324126095Y-305919428D01*
X324173714Y-306109904D01*
X324221333Y-306205142D01*
X324268952Y-306252761D01*
X324364190Y-306300380D01*
X324459428Y-306300380D01*
X324554666Y-306252761D01*
X324602285Y-306205142D01*
X324649904Y-306109904D01*
X324697523Y-305919428D01*
X324697523Y-305681333D01*
X324649904Y-305490857D01*
X324602285Y-305395619D01*
X324554666Y-305348000D01*
X324459428Y-305300380D01*
%TO.C,D22*%
X363254785Y-245270380D02*
X363254785Y-244270380D01*
X363016690Y-244270380D01*
X362873833Y-244318000D01*
X362778595Y-244413238D01*
X362730976Y-244508476D01*
X362683357Y-244698952D01*
X362683357Y-244841809D01*
X362730976Y-245032285D01*
X362778595Y-245127523D01*
X362873833Y-245222761D01*
X363016690Y-245270380D01*
X363254785Y-245270380D01*
X362302404Y-244365619D02*
X362254785Y-244318000D01*
X362159547Y-244270380D01*
X361921452Y-244270380D01*
X361826214Y-244318000D01*
X361778595Y-244365619D01*
X361730976Y-244460857D01*
X361730976Y-244556095D01*
X361778595Y-244698952D01*
X362350023Y-245270380D01*
X361730976Y-245270380D01*
X361350023Y-244365619D02*
X361302404Y-244318000D01*
X361207166Y-244270380D01*
X360969071Y-244270380D01*
X360873833Y-244318000D01*
X360826214Y-244365619D01*
X360778595Y-244460857D01*
X360778595Y-244556095D01*
X360826214Y-244698952D01*
X361397642Y-245270380D01*
X360778595Y-245270380D01*
%TO.C,D15*%
X520254785Y-224270380D02*
X520254785Y-223270380D01*
X520016690Y-223270380D01*
X519873833Y-223318000D01*
X519778595Y-223413238D01*
X519730976Y-223508476D01*
X519683357Y-223698952D01*
X519683357Y-223841809D01*
X519730976Y-224032285D01*
X519778595Y-224127523D01*
X519873833Y-224222761D01*
X520016690Y-224270380D01*
X520254785Y-224270380D01*
X518730976Y-224270380D02*
X519302404Y-224270380D01*
X519016690Y-224270380D02*
X519016690Y-223270380D01*
X519111928Y-223413238D01*
X519207166Y-223508476D01*
X519302404Y-223556095D01*
X517826214Y-223270380D02*
X518302404Y-223270380D01*
X518350023Y-223746571D01*
X518302404Y-223698952D01*
X518207166Y-223651333D01*
X517969071Y-223651333D01*
X517873833Y-223698952D01*
X517826214Y-223746571D01*
X517778595Y-223841809D01*
X517778595Y-224079904D01*
X517826214Y-224175142D01*
X517873833Y-224222761D01*
X517969071Y-224270380D01*
X518207166Y-224270380D01*
X518302404Y-224222761D01*
X518350023Y-224175142D01*
%TO.C,D52*%
X401254785Y-286270380D02*
X401254785Y-285270380D01*
X401016690Y-285270380D01*
X400873833Y-285318000D01*
X400778595Y-285413238D01*
X400730976Y-285508476D01*
X400683357Y-285698952D01*
X400683357Y-285841809D01*
X400730976Y-286032285D01*
X400778595Y-286127523D01*
X400873833Y-286222761D01*
X401016690Y-286270380D01*
X401254785Y-286270380D01*
X399778595Y-285270380D02*
X400254785Y-285270380D01*
X400302404Y-285746571D01*
X400254785Y-285698952D01*
X400159547Y-285651333D01*
X399921452Y-285651333D01*
X399826214Y-285698952D01*
X399778595Y-285746571D01*
X399730976Y-285841809D01*
X399730976Y-286079904D01*
X399778595Y-286175142D01*
X399826214Y-286222761D01*
X399921452Y-286270380D01*
X400159547Y-286270380D01*
X400254785Y-286222761D01*
X400302404Y-286175142D01*
X399350023Y-285365619D02*
X399302404Y-285318000D01*
X399207166Y-285270380D01*
X398969071Y-285270380D01*
X398873833Y-285318000D01*
X398826214Y-285365619D01*
X398778595Y-285460857D01*
X398778595Y-285556095D01*
X398826214Y-285698952D01*
X399397642Y-286270380D01*
X398778595Y-286270380D01*
%TO.C,D2*%
X265778595Y-224270380D02*
X265778595Y-223270380D01*
X265540500Y-223270380D01*
X265397642Y-223318000D01*
X265302404Y-223413238D01*
X265254785Y-223508476D01*
X265207166Y-223698952D01*
X265207166Y-223841809D01*
X265254785Y-224032285D01*
X265302404Y-224127523D01*
X265397642Y-224222761D01*
X265540500Y-224270380D01*
X265778595Y-224270380D01*
X264826214Y-223365619D02*
X264778595Y-223318000D01*
X264683357Y-223270380D01*
X264445261Y-223270380D01*
X264350023Y-223318000D01*
X264302404Y-223365619D01*
X264254785Y-223460857D01*
X264254785Y-223556095D01*
X264302404Y-223698952D01*
X264873833Y-224270380D01*
X264254785Y-224270380D01*
%TO.C,R27*%
X561720857Y-314620380D02*
X562054190Y-314144190D01*
X562292285Y-314620380D02*
X562292285Y-313620380D01*
X561911333Y-313620380D01*
X561816095Y-313668000D01*
X561768476Y-313715619D01*
X561720857Y-313810857D01*
X561720857Y-313953714D01*
X561768476Y-314048952D01*
X561816095Y-314096571D01*
X561911333Y-314144190D01*
X562292285Y-314144190D01*
X561339904Y-313715619D02*
X561292285Y-313668000D01*
X561197047Y-313620380D01*
X560958952Y-313620380D01*
X560863714Y-313668000D01*
X560816095Y-313715619D01*
X560768476Y-313810857D01*
X560768476Y-313906095D01*
X560816095Y-314048952D01*
X561387523Y-314620380D01*
X560768476Y-314620380D01*
X560435142Y-313620380D02*
X559768476Y-313620380D01*
X560197047Y-314620380D01*
%TO.C,D7*%
X360778595Y-224270380D02*
X360778595Y-223270380D01*
X360540500Y-223270380D01*
X360397642Y-223318000D01*
X360302404Y-223413238D01*
X360254785Y-223508476D01*
X360207166Y-223698952D01*
X360207166Y-223841809D01*
X360254785Y-224032285D01*
X360302404Y-224127523D01*
X360397642Y-224222761D01*
X360540500Y-224270380D01*
X360778595Y-224270380D01*
X359873833Y-223270380D02*
X359207166Y-223270380D01*
X359635738Y-224270380D01*
%TO.C,D28*%
X478254785Y-245270380D02*
X478254785Y-244270380D01*
X478016690Y-244270380D01*
X477873833Y-244318000D01*
X477778595Y-244413238D01*
X477730976Y-244508476D01*
X477683357Y-244698952D01*
X477683357Y-244841809D01*
X477730976Y-245032285D01*
X477778595Y-245127523D01*
X477873833Y-245222761D01*
X478016690Y-245270380D01*
X478254785Y-245270380D01*
X477302404Y-244365619D02*
X477254785Y-244318000D01*
X477159547Y-244270380D01*
X476921452Y-244270380D01*
X476826214Y-244318000D01*
X476778595Y-244365619D01*
X476730976Y-244460857D01*
X476730976Y-244556095D01*
X476778595Y-244698952D01*
X477350023Y-245270380D01*
X476730976Y-245270380D01*
X476159547Y-244698952D02*
X476254785Y-244651333D01*
X476302404Y-244603714D01*
X476350023Y-244508476D01*
X476350023Y-244460857D01*
X476302404Y-244365619D01*
X476254785Y-244318000D01*
X476159547Y-244270380D01*
X475969071Y-244270380D01*
X475873833Y-244318000D01*
X475826214Y-244365619D01*
X475778595Y-244460857D01*
X475778595Y-244508476D01*
X475826214Y-244603714D01*
X475873833Y-244651333D01*
X475969071Y-244698952D01*
X476159547Y-244698952D01*
X476254785Y-244746571D01*
X476302404Y-244794190D01*
X476350023Y-244889428D01*
X476350023Y-245079904D01*
X476302404Y-245175142D01*
X476254785Y-245222761D01*
X476159547Y-245270380D01*
X475969071Y-245270380D01*
X475873833Y-245222761D01*
X475826214Y-245175142D01*
X475778595Y-245079904D01*
X475778595Y-244889428D01*
X475826214Y-244794190D01*
X475873833Y-244746571D01*
X475969071Y-244698952D01*
%TO.C,D49*%
X343254785Y-286270380D02*
X343254785Y-285270380D01*
X343016690Y-285270380D01*
X342873833Y-285318000D01*
X342778595Y-285413238D01*
X342730976Y-285508476D01*
X342683357Y-285698952D01*
X342683357Y-285841809D01*
X342730976Y-286032285D01*
X342778595Y-286127523D01*
X342873833Y-286222761D01*
X343016690Y-286270380D01*
X343254785Y-286270380D01*
X341826214Y-285603714D02*
X341826214Y-286270380D01*
X342064309Y-285222761D02*
X342302404Y-285937047D01*
X341683357Y-285937047D01*
X341254785Y-286270380D02*
X341064309Y-286270380D01*
X340969071Y-286222761D01*
X340921452Y-286175142D01*
X340826214Y-286032285D01*
X340778595Y-285841809D01*
X340778595Y-285460857D01*
X340826214Y-285365619D01*
X340873833Y-285318000D01*
X340969071Y-285270380D01*
X341159547Y-285270380D01*
X341254785Y-285318000D01*
X341302404Y-285365619D01*
X341350023Y-285460857D01*
X341350023Y-285698952D01*
X341302404Y-285794190D01*
X341254785Y-285841809D01*
X341159547Y-285889428D01*
X340969071Y-285889428D01*
X340873833Y-285841809D01*
X340826214Y-285794190D01*
X340778595Y-285698952D01*
%TO.C,D39*%
X408254785Y-266270380D02*
X408254785Y-265270380D01*
X408016690Y-265270380D01*
X407873833Y-265318000D01*
X407778595Y-265413238D01*
X407730976Y-265508476D01*
X407683357Y-265698952D01*
X407683357Y-265841809D01*
X407730976Y-266032285D01*
X407778595Y-266127523D01*
X407873833Y-266222761D01*
X408016690Y-266270380D01*
X408254785Y-266270380D01*
X407350023Y-265270380D02*
X406730976Y-265270380D01*
X407064309Y-265651333D01*
X406921452Y-265651333D01*
X406826214Y-265698952D01*
X406778595Y-265746571D01*
X406730976Y-265841809D01*
X406730976Y-266079904D01*
X406778595Y-266175142D01*
X406826214Y-266222761D01*
X406921452Y-266270380D01*
X407207166Y-266270380D01*
X407302404Y-266222761D01*
X407350023Y-266175142D01*
X406254785Y-266270380D02*
X406064309Y-266270380D01*
X405969071Y-266222761D01*
X405921452Y-266175142D01*
X405826214Y-266032285D01*
X405778595Y-265841809D01*
X405778595Y-265460857D01*
X405826214Y-265365619D01*
X405873833Y-265318000D01*
X405969071Y-265270380D01*
X406159547Y-265270380D01*
X406254785Y-265318000D01*
X406302404Y-265365619D01*
X406350023Y-265460857D01*
X406350023Y-265698952D01*
X406302404Y-265794190D01*
X406254785Y-265841809D01*
X406159547Y-265889428D01*
X405969071Y-265889428D01*
X405873833Y-265841809D01*
X405826214Y-265794190D01*
X405778595Y-265698952D01*
%TO.C,R26*%
X561720857Y-307620380D02*
X562054190Y-307144190D01*
X562292285Y-307620380D02*
X562292285Y-306620380D01*
X561911333Y-306620380D01*
X561816095Y-306668000D01*
X561768476Y-306715619D01*
X561720857Y-306810857D01*
X561720857Y-306953714D01*
X561768476Y-307048952D01*
X561816095Y-307096571D01*
X561911333Y-307144190D01*
X562292285Y-307144190D01*
X561339904Y-306715619D02*
X561292285Y-306668000D01*
X561197047Y-306620380D01*
X560958952Y-306620380D01*
X560863714Y-306668000D01*
X560816095Y-306715619D01*
X560768476Y-306810857D01*
X560768476Y-306906095D01*
X560816095Y-307048952D01*
X561387523Y-307620380D01*
X560768476Y-307620380D01*
X559911333Y-306620380D02*
X560101809Y-306620380D01*
X560197047Y-306668000D01*
X560244666Y-306715619D01*
X560339904Y-306858476D01*
X560387523Y-307048952D01*
X560387523Y-307429904D01*
X560339904Y-307525142D01*
X560292285Y-307572761D01*
X560197047Y-307620380D01*
X560006571Y-307620380D01*
X559911333Y-307572761D01*
X559863714Y-307525142D01*
X559816095Y-307429904D01*
X559816095Y-307191809D01*
X559863714Y-307096571D01*
X559911333Y-307048952D01*
X560006571Y-307001333D01*
X560197047Y-307001333D01*
X560292285Y-307048952D01*
X560339904Y-307096571D01*
X560387523Y-307191809D01*
%TO.C,D64*%
X513064785Y-307270380D02*
X513064785Y-306270380D01*
X512826690Y-306270380D01*
X512683833Y-306318000D01*
X512588595Y-306413238D01*
X512540976Y-306508476D01*
X512493357Y-306698952D01*
X512493357Y-306841809D01*
X512540976Y-307032285D01*
X512588595Y-307127523D01*
X512683833Y-307222761D01*
X512826690Y-307270380D01*
X513064785Y-307270380D01*
X511636214Y-306270380D02*
X511826690Y-306270380D01*
X511921928Y-306318000D01*
X511969547Y-306365619D01*
X512064785Y-306508476D01*
X512112404Y-306698952D01*
X512112404Y-307079904D01*
X512064785Y-307175142D01*
X512017166Y-307222761D01*
X511921928Y-307270380D01*
X511731452Y-307270380D01*
X511636214Y-307222761D01*
X511588595Y-307175142D01*
X511540976Y-307079904D01*
X511540976Y-306841809D01*
X511588595Y-306746571D01*
X511636214Y-306698952D01*
X511731452Y-306651333D01*
X511921928Y-306651333D01*
X512017166Y-306698952D01*
X512064785Y-306746571D01*
X512112404Y-306841809D01*
X510683833Y-306603714D02*
X510683833Y-307270380D01*
X510921928Y-306222761D02*
X511160023Y-306937047D01*
X510540976Y-306937047D01*
%TO.C,D41*%
X446254785Y-266270380D02*
X446254785Y-265270380D01*
X446016690Y-265270380D01*
X445873833Y-265318000D01*
X445778595Y-265413238D01*
X445730976Y-265508476D01*
X445683357Y-265698952D01*
X445683357Y-265841809D01*
X445730976Y-266032285D01*
X445778595Y-266127523D01*
X445873833Y-266222761D01*
X446016690Y-266270380D01*
X446254785Y-266270380D01*
X444826214Y-265603714D02*
X444826214Y-266270380D01*
X445064309Y-265222761D02*
X445302404Y-265937047D01*
X444683357Y-265937047D01*
X443778595Y-266270380D02*
X444350023Y-266270380D01*
X444064309Y-266270380D02*
X444064309Y-265270380D01*
X444159547Y-265413238D01*
X444254785Y-265508476D01*
X444350023Y-265556095D01*
%TO.C,D32*%
X272254785Y-266270380D02*
X272254785Y-265270380D01*
X272016690Y-265270380D01*
X271873833Y-265318000D01*
X271778595Y-265413238D01*
X271730976Y-265508476D01*
X271683357Y-265698952D01*
X271683357Y-265841809D01*
X271730976Y-266032285D01*
X271778595Y-266127523D01*
X271873833Y-266222761D01*
X272016690Y-266270380D01*
X272254785Y-266270380D01*
X271350023Y-265270380D02*
X270730976Y-265270380D01*
X271064309Y-265651333D01*
X270921452Y-265651333D01*
X270826214Y-265698952D01*
X270778595Y-265746571D01*
X270730976Y-265841809D01*
X270730976Y-266079904D01*
X270778595Y-266175142D01*
X270826214Y-266222761D01*
X270921452Y-266270380D01*
X271207166Y-266270380D01*
X271302404Y-266222761D01*
X271350023Y-266175142D01*
X270350023Y-265365619D02*
X270302404Y-265318000D01*
X270207166Y-265270380D01*
X269969071Y-265270380D01*
X269873833Y-265318000D01*
X269826214Y-265365619D01*
X269778595Y-265460857D01*
X269778595Y-265556095D01*
X269826214Y-265698952D01*
X270397642Y-266270380D01*
X269778595Y-266270380D01*
%TO.C,D18*%
X286254785Y-245270380D02*
X286254785Y-244270380D01*
X286016690Y-244270380D01*
X285873833Y-244318000D01*
X285778595Y-244413238D01*
X285730976Y-244508476D01*
X285683357Y-244698952D01*
X285683357Y-244841809D01*
X285730976Y-245032285D01*
X285778595Y-245127523D01*
X285873833Y-245222761D01*
X286016690Y-245270380D01*
X286254785Y-245270380D01*
X284730976Y-245270380D02*
X285302404Y-245270380D01*
X285016690Y-245270380D02*
X285016690Y-244270380D01*
X285111928Y-244413238D01*
X285207166Y-244508476D01*
X285302404Y-244556095D01*
X284159547Y-244698952D02*
X284254785Y-244651333D01*
X284302404Y-244603714D01*
X284350023Y-244508476D01*
X284350023Y-244460857D01*
X284302404Y-244365619D01*
X284254785Y-244318000D01*
X284159547Y-244270380D01*
X283969071Y-244270380D01*
X283873833Y-244318000D01*
X283826214Y-244365619D01*
X283778595Y-244460857D01*
X283778595Y-244508476D01*
X283826214Y-244603714D01*
X283873833Y-244651333D01*
X283969071Y-244698952D01*
X284159547Y-244698952D01*
X284254785Y-244746571D01*
X284302404Y-244794190D01*
X284350023Y-244889428D01*
X284350023Y-245079904D01*
X284302404Y-245175142D01*
X284254785Y-245222761D01*
X284159547Y-245270380D01*
X283969071Y-245270380D01*
X283873833Y-245222761D01*
X283826214Y-245175142D01*
X283778595Y-245079904D01*
X283778595Y-244889428D01*
X283826214Y-244794190D01*
X283873833Y-244746571D01*
X283969071Y-244698952D01*
%TO.C,D44*%
X525254785Y-265270380D02*
X525254785Y-264270380D01*
X525016690Y-264270380D01*
X524873833Y-264318000D01*
X524778595Y-264413238D01*
X524730976Y-264508476D01*
X524683357Y-264698952D01*
X524683357Y-264841809D01*
X524730976Y-265032285D01*
X524778595Y-265127523D01*
X524873833Y-265222761D01*
X525016690Y-265270380D01*
X525254785Y-265270380D01*
X523826214Y-264603714D02*
X523826214Y-265270380D01*
X524064309Y-264222761D02*
X524302404Y-264937047D01*
X523683357Y-264937047D01*
X522873833Y-264603714D02*
X522873833Y-265270380D01*
X523111928Y-264222761D02*
X523350023Y-264937047D01*
X522730976Y-264937047D01*
%TO.C,D62*%
X463064785Y-306270380D02*
X463064785Y-305270380D01*
X462826690Y-305270380D01*
X462683833Y-305318000D01*
X462588595Y-305413238D01*
X462540976Y-305508476D01*
X462493357Y-305698952D01*
X462493357Y-305841809D01*
X462540976Y-306032285D01*
X462588595Y-306127523D01*
X462683833Y-306222761D01*
X462826690Y-306270380D01*
X463064785Y-306270380D01*
X461636214Y-305270380D02*
X461826690Y-305270380D01*
X461921928Y-305318000D01*
X461969547Y-305365619D01*
X462064785Y-305508476D01*
X462112404Y-305698952D01*
X462112404Y-306079904D01*
X462064785Y-306175142D01*
X462017166Y-306222761D01*
X461921928Y-306270380D01*
X461731452Y-306270380D01*
X461636214Y-306222761D01*
X461588595Y-306175142D01*
X461540976Y-306079904D01*
X461540976Y-305841809D01*
X461588595Y-305746571D01*
X461636214Y-305698952D01*
X461731452Y-305651333D01*
X461921928Y-305651333D01*
X462017166Y-305698952D01*
X462064785Y-305746571D01*
X462112404Y-305841809D01*
X461160023Y-305365619D02*
X461112404Y-305318000D01*
X461017166Y-305270380D01*
X460779071Y-305270380D01*
X460683833Y-305318000D01*
X460636214Y-305365619D01*
X460588595Y-305460857D01*
X460588595Y-305556095D01*
X460636214Y-305698952D01*
X461207642Y-306270380D01*
X460588595Y-306270380D01*
%TO.C,D8*%
X379778595Y-224270380D02*
X379778595Y-223270380D01*
X379540500Y-223270380D01*
X379397642Y-223318000D01*
X379302404Y-223413238D01*
X379254785Y-223508476D01*
X379207166Y-223698952D01*
X379207166Y-223841809D01*
X379254785Y-224032285D01*
X379302404Y-224127523D01*
X379397642Y-224222761D01*
X379540500Y-224270380D01*
X379778595Y-224270380D01*
X378635738Y-223698952D02*
X378730976Y-223651333D01*
X378778595Y-223603714D01*
X378826214Y-223508476D01*
X378826214Y-223460857D01*
X378778595Y-223365619D01*
X378730976Y-223318000D01*
X378635738Y-223270380D01*
X378445261Y-223270380D01*
X378350023Y-223318000D01*
X378302404Y-223365619D01*
X378254785Y-223460857D01*
X378254785Y-223508476D01*
X378302404Y-223603714D01*
X378350023Y-223651333D01*
X378445261Y-223698952D01*
X378635738Y-223698952D01*
X378730976Y-223746571D01*
X378778595Y-223794190D01*
X378826214Y-223889428D01*
X378826214Y-224079904D01*
X378778595Y-224175142D01*
X378730976Y-224222761D01*
X378635738Y-224270380D01*
X378445261Y-224270380D01*
X378350023Y-224222761D01*
X378302404Y-224175142D01*
X378254785Y-224079904D01*
X378254785Y-223889428D01*
X378302404Y-223794190D01*
X378350023Y-223746571D01*
X378445261Y-223698952D01*
%TO.C,D56*%
X498064785Y-287270380D02*
X498064785Y-286270380D01*
X497826690Y-286270380D01*
X497683833Y-286318000D01*
X497588595Y-286413238D01*
X497540976Y-286508476D01*
X497493357Y-286698952D01*
X497493357Y-286841809D01*
X497540976Y-287032285D01*
X497588595Y-287127523D01*
X497683833Y-287222761D01*
X497826690Y-287270380D01*
X498064785Y-287270380D01*
X496588595Y-286270380D02*
X497064785Y-286270380D01*
X497112404Y-286746571D01*
X497064785Y-286698952D01*
X496969547Y-286651333D01*
X496731452Y-286651333D01*
X496636214Y-286698952D01*
X496588595Y-286746571D01*
X496540976Y-286841809D01*
X496540976Y-287079904D01*
X496588595Y-287175142D01*
X496636214Y-287222761D01*
X496731452Y-287270380D01*
X496969547Y-287270380D01*
X497064785Y-287222761D01*
X497112404Y-287175142D01*
X495683833Y-286270380D02*
X495874309Y-286270380D01*
X495969547Y-286318000D01*
X496017166Y-286365619D01*
X496112404Y-286508476D01*
X496160023Y-286698952D01*
X496160023Y-287079904D01*
X496112404Y-287175142D01*
X496064785Y-287222761D01*
X495969547Y-287270380D01*
X495779071Y-287270380D01*
X495683833Y-287222761D01*
X495636214Y-287175142D01*
X495588595Y-287079904D01*
X495588595Y-286841809D01*
X495636214Y-286746571D01*
X495683833Y-286698952D01*
X495779071Y-286651333D01*
X495969547Y-286651333D01*
X496064785Y-286698952D01*
X496112404Y-286746571D01*
X496160023Y-286841809D01*
%TO.C,D35*%
X327254785Y-266270380D02*
X327254785Y-265270380D01*
X327016690Y-265270380D01*
X326873833Y-265318000D01*
X326778595Y-265413238D01*
X326730976Y-265508476D01*
X326683357Y-265698952D01*
X326683357Y-265841809D01*
X326730976Y-266032285D01*
X326778595Y-266127523D01*
X326873833Y-266222761D01*
X327016690Y-266270380D01*
X327254785Y-266270380D01*
X326350023Y-265270380D02*
X325730976Y-265270380D01*
X326064309Y-265651333D01*
X325921452Y-265651333D01*
X325826214Y-265698952D01*
X325778595Y-265746571D01*
X325730976Y-265841809D01*
X325730976Y-266079904D01*
X325778595Y-266175142D01*
X325826214Y-266222761D01*
X325921452Y-266270380D01*
X326207166Y-266270380D01*
X326302404Y-266222761D01*
X326350023Y-266175142D01*
X324826214Y-265270380D02*
X325302404Y-265270380D01*
X325350023Y-265746571D01*
X325302404Y-265698952D01*
X325207166Y-265651333D01*
X324969071Y-265651333D01*
X324873833Y-265698952D01*
X324826214Y-265746571D01*
X324778595Y-265841809D01*
X324778595Y-266079904D01*
X324826214Y-266175142D01*
X324873833Y-266222761D01*
X324969071Y-266270380D01*
X325207166Y-266270380D01*
X325302404Y-266222761D01*
X325350023Y-266175142D01*
%TO.C,D57*%
X529254785Y-288270380D02*
X529254785Y-287270380D01*
X529016690Y-287270380D01*
X528873833Y-287318000D01*
X528778595Y-287413238D01*
X528730976Y-287508476D01*
X528683357Y-287698952D01*
X528683357Y-287841809D01*
X528730976Y-288032285D01*
X528778595Y-288127523D01*
X528873833Y-288222761D01*
X529016690Y-288270380D01*
X529254785Y-288270380D01*
X527778595Y-287270380D02*
X528254785Y-287270380D01*
X528302404Y-287746571D01*
X528254785Y-287698952D01*
X528159547Y-287651333D01*
X527921452Y-287651333D01*
X527826214Y-287698952D01*
X527778595Y-287746571D01*
X527730976Y-287841809D01*
X527730976Y-288079904D01*
X527778595Y-288175142D01*
X527826214Y-288222761D01*
X527921452Y-288270380D01*
X528159547Y-288270380D01*
X528254785Y-288222761D01*
X528302404Y-288175142D01*
X527397642Y-287270380D02*
X526730976Y-287270380D01*
X527159547Y-288270380D01*
%TO.C,D10*%
X419254785Y-224270380D02*
X419254785Y-223270380D01*
X419016690Y-223270380D01*
X418873833Y-223318000D01*
X418778595Y-223413238D01*
X418730976Y-223508476D01*
X418683357Y-223698952D01*
X418683357Y-223841809D01*
X418730976Y-224032285D01*
X418778595Y-224127523D01*
X418873833Y-224222761D01*
X419016690Y-224270380D01*
X419254785Y-224270380D01*
X417730976Y-224270380D02*
X418302404Y-224270380D01*
X418016690Y-224270380D02*
X418016690Y-223270380D01*
X418111928Y-223413238D01*
X418207166Y-223508476D01*
X418302404Y-223556095D01*
X417111928Y-223270380D02*
X417016690Y-223270380D01*
X416921452Y-223318000D01*
X416873833Y-223365619D01*
X416826214Y-223460857D01*
X416778595Y-223651333D01*
X416778595Y-223889428D01*
X416826214Y-224079904D01*
X416873833Y-224175142D01*
X416921452Y-224222761D01*
X417016690Y-224270380D01*
X417111928Y-224270380D01*
X417207166Y-224222761D01*
X417254785Y-224175142D01*
X417302404Y-224079904D01*
X417350023Y-223889428D01*
X417350023Y-223651333D01*
X417302404Y-223460857D01*
X417254785Y-223365619D01*
X417207166Y-223318000D01*
X417111928Y-223270380D01*
%TO.C,D19*%
X305254785Y-245270380D02*
X305254785Y-244270380D01*
X305016690Y-244270380D01*
X304873833Y-244318000D01*
X304778595Y-244413238D01*
X304730976Y-244508476D01*
X304683357Y-244698952D01*
X304683357Y-244841809D01*
X304730976Y-245032285D01*
X304778595Y-245127523D01*
X304873833Y-245222761D01*
X305016690Y-245270380D01*
X305254785Y-245270380D01*
X303730976Y-245270380D02*
X304302404Y-245270380D01*
X304016690Y-245270380D02*
X304016690Y-244270380D01*
X304111928Y-244413238D01*
X304207166Y-244508476D01*
X304302404Y-244556095D01*
X303254785Y-245270380D02*
X303064309Y-245270380D01*
X302969071Y-245222761D01*
X302921452Y-245175142D01*
X302826214Y-245032285D01*
X302778595Y-244841809D01*
X302778595Y-244460857D01*
X302826214Y-244365619D01*
X302873833Y-244318000D01*
X302969071Y-244270380D01*
X303159547Y-244270380D01*
X303254785Y-244318000D01*
X303302404Y-244365619D01*
X303350023Y-244460857D01*
X303350023Y-244698952D01*
X303302404Y-244794190D01*
X303254785Y-244841809D01*
X303159547Y-244889428D01*
X302969071Y-244889428D01*
X302873833Y-244841809D01*
X302826214Y-244794190D01*
X302778595Y-244698952D01*
%TO.C,D38*%
X389254785Y-266270380D02*
X389254785Y-265270380D01*
X389016690Y-265270380D01*
X388873833Y-265318000D01*
X388778595Y-265413238D01*
X388730976Y-265508476D01*
X388683357Y-265698952D01*
X388683357Y-265841809D01*
X388730976Y-266032285D01*
X388778595Y-266127523D01*
X388873833Y-266222761D01*
X389016690Y-266270380D01*
X389254785Y-266270380D01*
X388350023Y-265270380D02*
X387730976Y-265270380D01*
X388064309Y-265651333D01*
X387921452Y-265651333D01*
X387826214Y-265698952D01*
X387778595Y-265746571D01*
X387730976Y-265841809D01*
X387730976Y-266079904D01*
X387778595Y-266175142D01*
X387826214Y-266222761D01*
X387921452Y-266270380D01*
X388207166Y-266270380D01*
X388302404Y-266222761D01*
X388350023Y-266175142D01*
X387159547Y-265698952D02*
X387254785Y-265651333D01*
X387302404Y-265603714D01*
X387350023Y-265508476D01*
X387350023Y-265460857D01*
X387302404Y-265365619D01*
X387254785Y-265318000D01*
X387159547Y-265270380D01*
X386969071Y-265270380D01*
X386873833Y-265318000D01*
X386826214Y-265365619D01*
X386778595Y-265460857D01*
X386778595Y-265508476D01*
X386826214Y-265603714D01*
X386873833Y-265651333D01*
X386969071Y-265698952D01*
X387159547Y-265698952D01*
X387254785Y-265746571D01*
X387302404Y-265794190D01*
X387350023Y-265889428D01*
X387350023Y-266079904D01*
X387302404Y-266175142D01*
X387254785Y-266222761D01*
X387159547Y-266270380D01*
X386969071Y-266270380D01*
X386873833Y-266222761D01*
X386826214Y-266175142D01*
X386778595Y-266079904D01*
X386778595Y-265889428D01*
X386826214Y-265794190D01*
X386873833Y-265746571D01*
X386969071Y-265698952D01*
%TO.C,D63*%
X480064785Y-306270380D02*
X480064785Y-305270380D01*
X479826690Y-305270380D01*
X479683833Y-305318000D01*
X479588595Y-305413238D01*
X479540976Y-305508476D01*
X479493357Y-305698952D01*
X479493357Y-305841809D01*
X479540976Y-306032285D01*
X479588595Y-306127523D01*
X479683833Y-306222761D01*
X479826690Y-306270380D01*
X480064785Y-306270380D01*
X478636214Y-305270380D02*
X478826690Y-305270380D01*
X478921928Y-305318000D01*
X478969547Y-305365619D01*
X479064785Y-305508476D01*
X479112404Y-305698952D01*
X479112404Y-306079904D01*
X479064785Y-306175142D01*
X479017166Y-306222761D01*
X478921928Y-306270380D01*
X478731452Y-306270380D01*
X478636214Y-306222761D01*
X478588595Y-306175142D01*
X478540976Y-306079904D01*
X478540976Y-305841809D01*
X478588595Y-305746571D01*
X478636214Y-305698952D01*
X478731452Y-305651333D01*
X478921928Y-305651333D01*
X479017166Y-305698952D01*
X479064785Y-305746571D01*
X479112404Y-305841809D01*
X478207642Y-305270380D02*
X477588595Y-305270380D01*
X477921928Y-305651333D01*
X477779071Y-305651333D01*
X477683833Y-305698952D01*
X477636214Y-305746571D01*
X477588595Y-305841809D01*
X477588595Y-306079904D01*
X477636214Y-306175142D01*
X477683833Y-306222761D01*
X477779071Y-306270380D01*
X478064785Y-306270380D01*
X478160023Y-306222761D01*
X478207642Y-306175142D01*
%TO.C,D26*%
X439254785Y-245270380D02*
X439254785Y-244270380D01*
X439016690Y-244270380D01*
X438873833Y-244318000D01*
X438778595Y-244413238D01*
X438730976Y-244508476D01*
X438683357Y-244698952D01*
X438683357Y-244841809D01*
X438730976Y-245032285D01*
X438778595Y-245127523D01*
X438873833Y-245222761D01*
X439016690Y-245270380D01*
X439254785Y-245270380D01*
X438302404Y-244365619D02*
X438254785Y-244318000D01*
X438159547Y-244270380D01*
X437921452Y-244270380D01*
X437826214Y-244318000D01*
X437778595Y-244365619D01*
X437730976Y-244460857D01*
X437730976Y-244556095D01*
X437778595Y-244698952D01*
X438350023Y-245270380D01*
X437730976Y-245270380D01*
X436873833Y-244270380D02*
X437064309Y-244270380D01*
X437159547Y-244318000D01*
X437207166Y-244365619D01*
X437302404Y-244508476D01*
X437350023Y-244698952D01*
X437350023Y-245079904D01*
X437302404Y-245175142D01*
X437254785Y-245222761D01*
X437159547Y-245270380D01*
X436969071Y-245270380D01*
X436873833Y-245222761D01*
X436826214Y-245175142D01*
X436778595Y-245079904D01*
X436778595Y-244841809D01*
X436826214Y-244746571D01*
X436873833Y-244698952D01*
X436969071Y-244651333D01*
X437159547Y-244651333D01*
X437254785Y-244698952D01*
X437302404Y-244746571D01*
X437350023Y-244841809D01*
%TO.C,D54*%
X439254785Y-286270380D02*
X439254785Y-285270380D01*
X439016690Y-285270380D01*
X438873833Y-285318000D01*
X438778595Y-285413238D01*
X438730976Y-285508476D01*
X438683357Y-285698952D01*
X438683357Y-285841809D01*
X438730976Y-286032285D01*
X438778595Y-286127523D01*
X438873833Y-286222761D01*
X439016690Y-286270380D01*
X439254785Y-286270380D01*
X437778595Y-285270380D02*
X438254785Y-285270380D01*
X438302404Y-285746571D01*
X438254785Y-285698952D01*
X438159547Y-285651333D01*
X437921452Y-285651333D01*
X437826214Y-285698952D01*
X437778595Y-285746571D01*
X437730976Y-285841809D01*
X437730976Y-286079904D01*
X437778595Y-286175142D01*
X437826214Y-286222761D01*
X437921452Y-286270380D01*
X438159547Y-286270380D01*
X438254785Y-286222761D01*
X438302404Y-286175142D01*
X436873833Y-285603714D02*
X436873833Y-286270380D01*
X437111928Y-285222761D02*
X437350023Y-285937047D01*
X436730976Y-285937047D01*
%TO.C,D20*%
X324254785Y-245270380D02*
X324254785Y-244270380D01*
X324016690Y-244270380D01*
X323873833Y-244318000D01*
X323778595Y-244413238D01*
X323730976Y-244508476D01*
X323683357Y-244698952D01*
X323683357Y-244841809D01*
X323730976Y-245032285D01*
X323778595Y-245127523D01*
X323873833Y-245222761D01*
X324016690Y-245270380D01*
X324254785Y-245270380D01*
X323302404Y-244365619D02*
X323254785Y-244318000D01*
X323159547Y-244270380D01*
X322921452Y-244270380D01*
X322826214Y-244318000D01*
X322778595Y-244365619D01*
X322730976Y-244460857D01*
X322730976Y-244556095D01*
X322778595Y-244698952D01*
X323350023Y-245270380D01*
X322730976Y-245270380D01*
X322111928Y-244270380D02*
X322016690Y-244270380D01*
X321921452Y-244318000D01*
X321873833Y-244365619D01*
X321826214Y-244460857D01*
X321778595Y-244651333D01*
X321778595Y-244889428D01*
X321826214Y-245079904D01*
X321873833Y-245175142D01*
X321921452Y-245222761D01*
X322016690Y-245270380D01*
X322111928Y-245270380D01*
X322207166Y-245222761D01*
X322254785Y-245175142D01*
X322302404Y-245079904D01*
X322350023Y-244889428D01*
X322350023Y-244651333D01*
X322302404Y-244460857D01*
X322254785Y-244365619D01*
X322207166Y-244318000D01*
X322111928Y-244270380D01*
%TO.C,D33*%
X291254785Y-266270380D02*
X291254785Y-265270380D01*
X291016690Y-265270380D01*
X290873833Y-265318000D01*
X290778595Y-265413238D01*
X290730976Y-265508476D01*
X290683357Y-265698952D01*
X290683357Y-265841809D01*
X290730976Y-266032285D01*
X290778595Y-266127523D01*
X290873833Y-266222761D01*
X291016690Y-266270380D01*
X291254785Y-266270380D01*
X290350023Y-265270380D02*
X289730976Y-265270380D01*
X290064309Y-265651333D01*
X289921452Y-265651333D01*
X289826214Y-265698952D01*
X289778595Y-265746571D01*
X289730976Y-265841809D01*
X289730976Y-266079904D01*
X289778595Y-266175142D01*
X289826214Y-266222761D01*
X289921452Y-266270380D01*
X290207166Y-266270380D01*
X290302404Y-266222761D01*
X290350023Y-266175142D01*
X289397642Y-265270380D02*
X288778595Y-265270380D01*
X289111928Y-265651333D01*
X288969071Y-265651333D01*
X288873833Y-265698952D01*
X288826214Y-265746571D01*
X288778595Y-265841809D01*
X288778595Y-266079904D01*
X288826214Y-266175142D01*
X288873833Y-266222761D01*
X288969071Y-266270380D01*
X289254785Y-266270380D01*
X289350023Y-266222761D01*
X289397642Y-266175142D01*
%TO.C,D37*%
X369254785Y-266270380D02*
X369254785Y-265270380D01*
X369016690Y-265270380D01*
X368873833Y-265318000D01*
X368778595Y-265413238D01*
X368730976Y-265508476D01*
X368683357Y-265698952D01*
X368683357Y-265841809D01*
X368730976Y-266032285D01*
X368778595Y-266127523D01*
X368873833Y-266222761D01*
X369016690Y-266270380D01*
X369254785Y-266270380D01*
X368350023Y-265270380D02*
X367730976Y-265270380D01*
X368064309Y-265651333D01*
X367921452Y-265651333D01*
X367826214Y-265698952D01*
X367778595Y-265746571D01*
X367730976Y-265841809D01*
X367730976Y-266079904D01*
X367778595Y-266175142D01*
X367826214Y-266222761D01*
X367921452Y-266270380D01*
X368207166Y-266270380D01*
X368302404Y-266222761D01*
X368350023Y-266175142D01*
X367397642Y-265270380D02*
X366730976Y-265270380D01*
X367159547Y-266270380D01*
%TO.C,D13*%
X477064785Y-224270380D02*
X477064785Y-223270380D01*
X476826690Y-223270380D01*
X476683833Y-223318000D01*
X476588595Y-223413238D01*
X476540976Y-223508476D01*
X476493357Y-223698952D01*
X476493357Y-223841809D01*
X476540976Y-224032285D01*
X476588595Y-224127523D01*
X476683833Y-224222761D01*
X476826690Y-224270380D01*
X477064785Y-224270380D01*
X475540976Y-224270380D02*
X476112404Y-224270380D01*
X475826690Y-224270380D02*
X475826690Y-223270380D01*
X475921928Y-223413238D01*
X476017166Y-223508476D01*
X476112404Y-223556095D01*
X475207642Y-223270380D02*
X474588595Y-223270380D01*
X474921928Y-223651333D01*
X474779071Y-223651333D01*
X474683833Y-223698952D01*
X474636214Y-223746571D01*
X474588595Y-223841809D01*
X474588595Y-224079904D01*
X474636214Y-224175142D01*
X474683833Y-224222761D01*
X474779071Y-224270380D01*
X475064785Y-224270380D01*
X475160023Y-224222761D01*
X475207642Y-224175142D01*
%TO.C,D48*%
X324064785Y-286270380D02*
X324064785Y-285270380D01*
X323826690Y-285270380D01*
X323683833Y-285318000D01*
X323588595Y-285413238D01*
X323540976Y-285508476D01*
X323493357Y-285698952D01*
X323493357Y-285841809D01*
X323540976Y-286032285D01*
X323588595Y-286127523D01*
X323683833Y-286222761D01*
X323826690Y-286270380D01*
X324064785Y-286270380D01*
X322636214Y-285603714D02*
X322636214Y-286270380D01*
X322874309Y-285222761D02*
X323112404Y-285937047D01*
X322493357Y-285937047D01*
X321969547Y-285698952D02*
X322064785Y-285651333D01*
X322112404Y-285603714D01*
X322160023Y-285508476D01*
X322160023Y-285460857D01*
X322112404Y-285365619D01*
X322064785Y-285318000D01*
X321969547Y-285270380D01*
X321779071Y-285270380D01*
X321683833Y-285318000D01*
X321636214Y-285365619D01*
X321588595Y-285460857D01*
X321588595Y-285508476D01*
X321636214Y-285603714D01*
X321683833Y-285651333D01*
X321779071Y-285698952D01*
X321969547Y-285698952D01*
X322064785Y-285746571D01*
X322112404Y-285794190D01*
X322160023Y-285889428D01*
X322160023Y-286079904D01*
X322112404Y-286175142D01*
X322064785Y-286222761D01*
X321969547Y-286270380D01*
X321779071Y-286270380D01*
X321683833Y-286222761D01*
X321636214Y-286175142D01*
X321588595Y-286079904D01*
X321588595Y-285889428D01*
X321636214Y-285794190D01*
X321683833Y-285746571D01*
X321779071Y-285698952D01*
%TO.C,D27*%
X458254785Y-245270380D02*
X458254785Y-244270380D01*
X458016690Y-244270380D01*
X457873833Y-244318000D01*
X457778595Y-244413238D01*
X457730976Y-244508476D01*
X457683357Y-244698952D01*
X457683357Y-244841809D01*
X457730976Y-245032285D01*
X457778595Y-245127523D01*
X457873833Y-245222761D01*
X458016690Y-245270380D01*
X458254785Y-245270380D01*
X457302404Y-244365619D02*
X457254785Y-244318000D01*
X457159547Y-244270380D01*
X456921452Y-244270380D01*
X456826214Y-244318000D01*
X456778595Y-244365619D01*
X456730976Y-244460857D01*
X456730976Y-244556095D01*
X456778595Y-244698952D01*
X457350023Y-245270380D01*
X456730976Y-245270380D01*
X456397642Y-244270380D02*
X455730976Y-244270380D01*
X456159547Y-245270380D01*
%TO.C,D16*%
X247254785Y-245270380D02*
X247254785Y-244270380D01*
X247016690Y-244270380D01*
X246873833Y-244318000D01*
X246778595Y-244413238D01*
X246730976Y-244508476D01*
X246683357Y-244698952D01*
X246683357Y-244841809D01*
X246730976Y-245032285D01*
X246778595Y-245127523D01*
X246873833Y-245222761D01*
X247016690Y-245270380D01*
X247254785Y-245270380D01*
X245730976Y-245270380D02*
X246302404Y-245270380D01*
X246016690Y-245270380D02*
X246016690Y-244270380D01*
X246111928Y-244413238D01*
X246207166Y-244508476D01*
X246302404Y-244556095D01*
X244873833Y-244270380D02*
X245064309Y-244270380D01*
X245159547Y-244318000D01*
X245207166Y-244365619D01*
X245302404Y-244508476D01*
X245350023Y-244698952D01*
X245350023Y-245079904D01*
X245302404Y-245175142D01*
X245254785Y-245222761D01*
X245159547Y-245270380D01*
X244969071Y-245270380D01*
X244873833Y-245222761D01*
X244826214Y-245175142D01*
X244778595Y-245079904D01*
X244778595Y-244841809D01*
X244826214Y-244746571D01*
X244873833Y-244698952D01*
X244969071Y-244651333D01*
X245159547Y-244651333D01*
X245254785Y-244698952D01*
X245302404Y-244746571D01*
X245350023Y-244841809D01*
%TO.C,MCU1*%
X580873833Y-272420380D02*
X580873833Y-271420380D01*
X580540500Y-272134666D01*
X580207166Y-271420380D01*
X580207166Y-272420380D01*
X579159547Y-272325142D02*
X579207166Y-272372761D01*
X579350023Y-272420380D01*
X579445261Y-272420380D01*
X579588119Y-272372761D01*
X579683357Y-272277523D01*
X579730976Y-272182285D01*
X579778595Y-271991809D01*
X579778595Y-271848952D01*
X579730976Y-271658476D01*
X579683357Y-271563238D01*
X579588119Y-271468000D01*
X579445261Y-271420380D01*
X579350023Y-271420380D01*
X579207166Y-271468000D01*
X579159547Y-271515619D01*
X578730976Y-271420380D02*
X578730976Y-272229904D01*
X578683357Y-272325142D01*
X578635738Y-272372761D01*
X578540500Y-272420380D01*
X578350023Y-272420380D01*
X578254785Y-272372761D01*
X578207166Y-272325142D01*
X578159547Y-272229904D01*
X578159547Y-271420380D01*
X577159547Y-272420380D02*
X577730976Y-272420380D01*
X577445261Y-272420380D02*
X577445261Y-271420380D01*
X577540500Y-271563238D01*
X577635738Y-271658476D01*
X577730976Y-271706095D01*
%TO.C,D24*%
X401064785Y-245270380D02*
X401064785Y-244270380D01*
X400826690Y-244270380D01*
X400683833Y-244318000D01*
X400588595Y-244413238D01*
X400540976Y-244508476D01*
X400493357Y-244698952D01*
X400493357Y-244841809D01*
X400540976Y-245032285D01*
X400588595Y-245127523D01*
X400683833Y-245222761D01*
X400826690Y-245270380D01*
X401064785Y-245270380D01*
X400112404Y-244365619D02*
X400064785Y-244318000D01*
X399969547Y-244270380D01*
X399731452Y-244270380D01*
X399636214Y-244318000D01*
X399588595Y-244365619D01*
X399540976Y-244460857D01*
X399540976Y-244556095D01*
X399588595Y-244698952D01*
X400160023Y-245270380D01*
X399540976Y-245270380D01*
X398683833Y-244603714D02*
X398683833Y-245270380D01*
X398921928Y-244222761D02*
X399160023Y-244937047D01*
X398540976Y-244937047D01*
%TO.C,D30*%
X523064785Y-245270380D02*
X523064785Y-244270380D01*
X522826690Y-244270380D01*
X522683833Y-244318000D01*
X522588595Y-244413238D01*
X522540976Y-244508476D01*
X522493357Y-244698952D01*
X522493357Y-244841809D01*
X522540976Y-245032285D01*
X522588595Y-245127523D01*
X522683833Y-245222761D01*
X522826690Y-245270380D01*
X523064785Y-245270380D01*
X522160023Y-244270380D02*
X521540976Y-244270380D01*
X521874309Y-244651333D01*
X521731452Y-244651333D01*
X521636214Y-244698952D01*
X521588595Y-244746571D01*
X521540976Y-244841809D01*
X521540976Y-245079904D01*
X521588595Y-245175142D01*
X521636214Y-245222761D01*
X521731452Y-245270380D01*
X522017166Y-245270380D01*
X522112404Y-245222761D01*
X522160023Y-245175142D01*
X520921928Y-244270380D02*
X520826690Y-244270380D01*
X520731452Y-244318000D01*
X520683833Y-244365619D01*
X520636214Y-244460857D01*
X520588595Y-244651333D01*
X520588595Y-244889428D01*
X520636214Y-245079904D01*
X520683833Y-245175142D01*
X520731452Y-245222761D01*
X520826690Y-245270380D01*
X520921928Y-245270380D01*
X521017166Y-245222761D01*
X521064785Y-245175142D01*
X521112404Y-245079904D01*
X521160023Y-244889428D01*
X521160023Y-244651333D01*
X521112404Y-244460857D01*
X521064785Y-244365619D01*
X521017166Y-244318000D01*
X520921928Y-244270380D01*
%TO.C,D65*%
X533064785Y-307270380D02*
X533064785Y-306270380D01*
X532826690Y-306270380D01*
X532683833Y-306318000D01*
X532588595Y-306413238D01*
X532540976Y-306508476D01*
X532493357Y-306698952D01*
X532493357Y-306841809D01*
X532540976Y-307032285D01*
X532588595Y-307127523D01*
X532683833Y-307222761D01*
X532826690Y-307270380D01*
X533064785Y-307270380D01*
X531636214Y-306270380D02*
X531826690Y-306270380D01*
X531921928Y-306318000D01*
X531969547Y-306365619D01*
X532064785Y-306508476D01*
X532112404Y-306698952D01*
X532112404Y-307079904D01*
X532064785Y-307175142D01*
X532017166Y-307222761D01*
X531921928Y-307270380D01*
X531731452Y-307270380D01*
X531636214Y-307222761D01*
X531588595Y-307175142D01*
X531540976Y-307079904D01*
X531540976Y-306841809D01*
X531588595Y-306746571D01*
X531636214Y-306698952D01*
X531731452Y-306651333D01*
X531921928Y-306651333D01*
X532017166Y-306698952D01*
X532064785Y-306746571D01*
X532112404Y-306841809D01*
X530636214Y-306270380D02*
X531112404Y-306270380D01*
X531160023Y-306746571D01*
X531112404Y-306698952D01*
X531017166Y-306651333D01*
X530779071Y-306651333D01*
X530683833Y-306698952D01*
X530636214Y-306746571D01*
X530588595Y-306841809D01*
X530588595Y-307079904D01*
X530636214Y-307175142D01*
X530683833Y-307222761D01*
X530779071Y-307270380D01*
X531017166Y-307270380D01*
X531112404Y-307222761D01*
X531160023Y-307175142D01*
%TO.C,D12*%
X458254785Y-224270380D02*
X458254785Y-223270380D01*
X458016690Y-223270380D01*
X457873833Y-223318000D01*
X457778595Y-223413238D01*
X457730976Y-223508476D01*
X457683357Y-223698952D01*
X457683357Y-223841809D01*
X457730976Y-224032285D01*
X457778595Y-224127523D01*
X457873833Y-224222761D01*
X458016690Y-224270380D01*
X458254785Y-224270380D01*
X456730976Y-224270380D02*
X457302404Y-224270380D01*
X457016690Y-224270380D02*
X457016690Y-223270380D01*
X457111928Y-223413238D01*
X457207166Y-223508476D01*
X457302404Y-223556095D01*
X456350023Y-223365619D02*
X456302404Y-223318000D01*
X456207166Y-223270380D01*
X455969071Y-223270380D01*
X455873833Y-223318000D01*
X455826214Y-223365619D01*
X455778595Y-223460857D01*
X455778595Y-223556095D01*
X455826214Y-223698952D01*
X456397642Y-224270380D01*
X455778595Y-224270380D01*
%TO.C,D51*%
X382064785Y-286270380D02*
X382064785Y-285270380D01*
X381826690Y-285270380D01*
X381683833Y-285318000D01*
X381588595Y-285413238D01*
X381540976Y-285508476D01*
X381493357Y-285698952D01*
X381493357Y-285841809D01*
X381540976Y-286032285D01*
X381588595Y-286127523D01*
X381683833Y-286222761D01*
X381826690Y-286270380D01*
X382064785Y-286270380D01*
X380588595Y-285270380D02*
X381064785Y-285270380D01*
X381112404Y-285746571D01*
X381064785Y-285698952D01*
X380969547Y-285651333D01*
X380731452Y-285651333D01*
X380636214Y-285698952D01*
X380588595Y-285746571D01*
X380540976Y-285841809D01*
X380540976Y-286079904D01*
X380588595Y-286175142D01*
X380636214Y-286222761D01*
X380731452Y-286270380D01*
X380969547Y-286270380D01*
X381064785Y-286222761D01*
X381112404Y-286175142D01*
X379588595Y-286270380D02*
X380160023Y-286270380D01*
X379874309Y-286270380D02*
X379874309Y-285270380D01*
X379969547Y-285413238D01*
X380064785Y-285508476D01*
X380160023Y-285556095D01*
%TO.C,D53*%
X420254785Y-286270380D02*
X420254785Y-285270380D01*
X420016690Y-285270380D01*
X419873833Y-285318000D01*
X419778595Y-285413238D01*
X419730976Y-285508476D01*
X419683357Y-285698952D01*
X419683357Y-285841809D01*
X419730976Y-286032285D01*
X419778595Y-286127523D01*
X419873833Y-286222761D01*
X420016690Y-286270380D01*
X420254785Y-286270380D01*
X418778595Y-285270380D02*
X419254785Y-285270380D01*
X419302404Y-285746571D01*
X419254785Y-285698952D01*
X419159547Y-285651333D01*
X418921452Y-285651333D01*
X418826214Y-285698952D01*
X418778595Y-285746571D01*
X418730976Y-285841809D01*
X418730976Y-286079904D01*
X418778595Y-286175142D01*
X418826214Y-286222761D01*
X418921452Y-286270380D01*
X419159547Y-286270380D01*
X419254785Y-286222761D01*
X419302404Y-286175142D01*
X418397642Y-285270380D02*
X417778595Y-285270380D01*
X418111928Y-285651333D01*
X417969071Y-285651333D01*
X417873833Y-285698952D01*
X417826214Y-285746571D01*
X417778595Y-285841809D01*
X417778595Y-286079904D01*
X417826214Y-286175142D01*
X417873833Y-286222761D01*
X417969071Y-286270380D01*
X418254785Y-286270380D01*
X418350023Y-286222761D01*
X418397642Y-286175142D01*
%TO.C,D3*%
X285588595Y-224270380D02*
X285588595Y-223270380D01*
X285350500Y-223270380D01*
X285207642Y-223318000D01*
X285112404Y-223413238D01*
X285064785Y-223508476D01*
X285017166Y-223698952D01*
X285017166Y-223841809D01*
X285064785Y-224032285D01*
X285112404Y-224127523D01*
X285207642Y-224222761D01*
X285350500Y-224270380D01*
X285588595Y-224270380D01*
X284683833Y-223270380D02*
X284064785Y-223270380D01*
X284398119Y-223651333D01*
X284255261Y-223651333D01*
X284160023Y-223698952D01*
X284112404Y-223746571D01*
X284064785Y-223841809D01*
X284064785Y-224079904D01*
X284112404Y-224175142D01*
X284160023Y-224222761D01*
X284255261Y-224270380D01*
X284540976Y-224270380D01*
X284636214Y-224222761D01*
X284683833Y-224175142D01*
%TO.C,R25*%
X561720857Y-300620380D02*
X562054190Y-300144190D01*
X562292285Y-300620380D02*
X562292285Y-299620380D01*
X561911333Y-299620380D01*
X561816095Y-299668000D01*
X561768476Y-299715619D01*
X561720857Y-299810857D01*
X561720857Y-299953714D01*
X561768476Y-300048952D01*
X561816095Y-300096571D01*
X561911333Y-300144190D01*
X562292285Y-300144190D01*
X561339904Y-299715619D02*
X561292285Y-299668000D01*
X561197047Y-299620380D01*
X560958952Y-299620380D01*
X560863714Y-299668000D01*
X560816095Y-299715619D01*
X560768476Y-299810857D01*
X560768476Y-299906095D01*
X560816095Y-300048952D01*
X561387523Y-300620380D01*
X560768476Y-300620380D01*
X559863714Y-299620380D02*
X560339904Y-299620380D01*
X560387523Y-300096571D01*
X560339904Y-300048952D01*
X560244666Y-300001333D01*
X560006571Y-300001333D01*
X559911333Y-300048952D01*
X559863714Y-300096571D01*
X559816095Y-300191809D01*
X559816095Y-300429904D01*
X559863714Y-300525142D01*
X559911333Y-300572761D01*
X560006571Y-300620380D01*
X560244666Y-300620380D01*
X560339904Y-300572761D01*
X560387523Y-300525142D01*
%TO.C,D42*%
X474419785Y-266160380D02*
X474419785Y-265160380D01*
X474181690Y-265160380D01*
X474038833Y-265208000D01*
X473943595Y-265303238D01*
X473895976Y-265398476D01*
X473848357Y-265588952D01*
X473848357Y-265731809D01*
X473895976Y-265922285D01*
X473943595Y-266017523D01*
X474038833Y-266112761D01*
X474181690Y-266160380D01*
X474419785Y-266160380D01*
X472991214Y-265493714D02*
X472991214Y-266160380D01*
X473229309Y-265112761D02*
X473467404Y-265827047D01*
X472848357Y-265827047D01*
X472515023Y-265255619D02*
X472467404Y-265208000D01*
X472372166Y-265160380D01*
X472134071Y-265160380D01*
X472038833Y-265208000D01*
X471991214Y-265255619D01*
X471943595Y-265350857D01*
X471943595Y-265446095D01*
X471991214Y-265588952D01*
X472562642Y-266160380D01*
X471943595Y-266160380D01*
%TO.C,D40*%
X427254785Y-266270380D02*
X427254785Y-265270380D01*
X427016690Y-265270380D01*
X426873833Y-265318000D01*
X426778595Y-265413238D01*
X426730976Y-265508476D01*
X426683357Y-265698952D01*
X426683357Y-265841809D01*
X426730976Y-266032285D01*
X426778595Y-266127523D01*
X426873833Y-266222761D01*
X427016690Y-266270380D01*
X427254785Y-266270380D01*
X425826214Y-265603714D02*
X425826214Y-266270380D01*
X426064309Y-265222761D02*
X426302404Y-265937047D01*
X425683357Y-265937047D01*
X425111928Y-265270380D02*
X425016690Y-265270380D01*
X424921452Y-265318000D01*
X424873833Y-265365619D01*
X424826214Y-265460857D01*
X424778595Y-265651333D01*
X424778595Y-265889428D01*
X424826214Y-266079904D01*
X424873833Y-266175142D01*
X424921452Y-266222761D01*
X425016690Y-266270380D01*
X425111928Y-266270380D01*
X425207166Y-266222761D01*
X425254785Y-266175142D01*
X425302404Y-266079904D01*
X425350023Y-265889428D01*
X425350023Y-265651333D01*
X425302404Y-265460857D01*
X425254785Y-265365619D01*
X425207166Y-265318000D01*
X425111928Y-265270380D01*
%TO.C,D25*%
X420254785Y-245270380D02*
X420254785Y-244270380D01*
X420016690Y-244270380D01*
X419873833Y-244318000D01*
X419778595Y-244413238D01*
X419730976Y-244508476D01*
X419683357Y-244698952D01*
X419683357Y-244841809D01*
X419730976Y-245032285D01*
X419778595Y-245127523D01*
X419873833Y-245222761D01*
X420016690Y-245270380D01*
X420254785Y-245270380D01*
X419302404Y-244365619D02*
X419254785Y-244318000D01*
X419159547Y-244270380D01*
X418921452Y-244270380D01*
X418826214Y-244318000D01*
X418778595Y-244365619D01*
X418730976Y-244460857D01*
X418730976Y-244556095D01*
X418778595Y-244698952D01*
X419350023Y-245270380D01*
X418730976Y-245270380D01*
X417826214Y-244270380D02*
X418302404Y-244270380D01*
X418350023Y-244746571D01*
X418302404Y-244698952D01*
X418207166Y-244651333D01*
X417969071Y-244651333D01*
X417873833Y-244698952D01*
X417826214Y-244746571D01*
X417778595Y-244841809D01*
X417778595Y-245079904D01*
X417826214Y-245175142D01*
X417873833Y-245222761D01*
X417969071Y-245270380D01*
X418207166Y-245270380D01*
X418302404Y-245222761D01*
X418350023Y-245175142D01*
%TO.C,D31*%
X253254785Y-266270380D02*
X253254785Y-265270380D01*
X253016690Y-265270380D01*
X252873833Y-265318000D01*
X252778595Y-265413238D01*
X252730976Y-265508476D01*
X252683357Y-265698952D01*
X252683357Y-265841809D01*
X252730976Y-266032285D01*
X252778595Y-266127523D01*
X252873833Y-266222761D01*
X253016690Y-266270380D01*
X253254785Y-266270380D01*
X252350023Y-265270380D02*
X251730976Y-265270380D01*
X252064309Y-265651333D01*
X251921452Y-265651333D01*
X251826214Y-265698952D01*
X251778595Y-265746571D01*
X251730976Y-265841809D01*
X251730976Y-266079904D01*
X251778595Y-266175142D01*
X251826214Y-266222761D01*
X251921452Y-266270380D01*
X252207166Y-266270380D01*
X252302404Y-266222761D01*
X252350023Y-266175142D01*
X250778595Y-266270380D02*
X251350023Y-266270380D01*
X251064309Y-266270380D02*
X251064309Y-265270380D01*
X251159547Y-265413238D01*
X251254785Y-265508476D01*
X251350023Y-265556095D01*
%TO.C,D59*%
X286254785Y-306270380D02*
X286254785Y-305270380D01*
X286016690Y-305270380D01*
X285873833Y-305318000D01*
X285778595Y-305413238D01*
X285730976Y-305508476D01*
X285683357Y-305698952D01*
X285683357Y-305841809D01*
X285730976Y-306032285D01*
X285778595Y-306127523D01*
X285873833Y-306222761D01*
X286016690Y-306270380D01*
X286254785Y-306270380D01*
X284778595Y-305270380D02*
X285254785Y-305270380D01*
X285302404Y-305746571D01*
X285254785Y-305698952D01*
X285159547Y-305651333D01*
X284921452Y-305651333D01*
X284826214Y-305698952D01*
X284778595Y-305746571D01*
X284730976Y-305841809D01*
X284730976Y-306079904D01*
X284778595Y-306175142D01*
X284826214Y-306222761D01*
X284921452Y-306270380D01*
X285159547Y-306270380D01*
X285254785Y-306222761D01*
X285302404Y-306175142D01*
X284254785Y-306270380D02*
X284064309Y-306270380D01*
X283969071Y-306222761D01*
X283921452Y-306175142D01*
X283826214Y-306032285D01*
X283778595Y-305841809D01*
X283778595Y-305460857D01*
X283826214Y-305365619D01*
X283873833Y-305318000D01*
X283969071Y-305270380D01*
X284159547Y-305270380D01*
X284254785Y-305318000D01*
X284302404Y-305365619D01*
X284350023Y-305460857D01*
X284350023Y-305698952D01*
X284302404Y-305794190D01*
X284254785Y-305841809D01*
X284159547Y-305889428D01*
X283969071Y-305889428D01*
X283873833Y-305841809D01*
X283826214Y-305794190D01*
X283778595Y-305698952D01*
%TO.C,D43*%
X509254785Y-265270380D02*
X509254785Y-264270380D01*
X509016690Y-264270380D01*
X508873833Y-264318000D01*
X508778595Y-264413238D01*
X508730976Y-264508476D01*
X508683357Y-264698952D01*
X508683357Y-264841809D01*
X508730976Y-265032285D01*
X508778595Y-265127523D01*
X508873833Y-265222761D01*
X509016690Y-265270380D01*
X509254785Y-265270380D01*
X507826214Y-264603714D02*
X507826214Y-265270380D01*
X508064309Y-264222761D02*
X508302404Y-264937047D01*
X507683357Y-264937047D01*
X507397642Y-264270380D02*
X506778595Y-264270380D01*
X507111928Y-264651333D01*
X506969071Y-264651333D01*
X506873833Y-264698952D01*
X506826214Y-264746571D01*
X506778595Y-264841809D01*
X506778595Y-265079904D01*
X506826214Y-265175142D01*
X506873833Y-265222761D01*
X506969071Y-265270380D01*
X507254785Y-265270380D01*
X507350023Y-265222761D01*
X507397642Y-265175142D01*
%TO.C,D61*%
X433254785Y-306270380D02*
X433254785Y-305270380D01*
X433016690Y-305270380D01*
X432873833Y-305318000D01*
X432778595Y-305413238D01*
X432730976Y-305508476D01*
X432683357Y-305698952D01*
X432683357Y-305841809D01*
X432730976Y-306032285D01*
X432778595Y-306127523D01*
X432873833Y-306222761D01*
X433016690Y-306270380D01*
X433254785Y-306270380D01*
X431826214Y-305270380D02*
X432016690Y-305270380D01*
X432111928Y-305318000D01*
X432159547Y-305365619D01*
X432254785Y-305508476D01*
X432302404Y-305698952D01*
X432302404Y-306079904D01*
X432254785Y-306175142D01*
X432207166Y-306222761D01*
X432111928Y-306270380D01*
X431921452Y-306270380D01*
X431826214Y-306222761D01*
X431778595Y-306175142D01*
X431730976Y-306079904D01*
X431730976Y-305841809D01*
X431778595Y-305746571D01*
X431826214Y-305698952D01*
X431921452Y-305651333D01*
X432111928Y-305651333D01*
X432207166Y-305698952D01*
X432254785Y-305746571D01*
X432302404Y-305841809D01*
X430778595Y-306270380D02*
X431350023Y-306270380D01*
X431064309Y-306270380D02*
X431064309Y-305270380D01*
X431159547Y-305413238D01*
X431254785Y-305508476D01*
X431350023Y-305556095D01*
%TO.C,D34*%
X308254785Y-266270380D02*
X308254785Y-265270380D01*
X308016690Y-265270380D01*
X307873833Y-265318000D01*
X307778595Y-265413238D01*
X307730976Y-265508476D01*
X307683357Y-265698952D01*
X307683357Y-265841809D01*
X307730976Y-266032285D01*
X307778595Y-266127523D01*
X307873833Y-266222761D01*
X308016690Y-266270380D01*
X308254785Y-266270380D01*
X307350023Y-265270380D02*
X306730976Y-265270380D01*
X307064309Y-265651333D01*
X306921452Y-265651333D01*
X306826214Y-265698952D01*
X306778595Y-265746571D01*
X306730976Y-265841809D01*
X306730976Y-266079904D01*
X306778595Y-266175142D01*
X306826214Y-266222761D01*
X306921452Y-266270380D01*
X307207166Y-266270380D01*
X307302404Y-266222761D01*
X307350023Y-266175142D01*
X305873833Y-265603714D02*
X305873833Y-266270380D01*
X306111928Y-265222761D02*
X306350023Y-265937047D01*
X305730976Y-265937047D01*
%TO.C,D47*%
X305064785Y-286270380D02*
X305064785Y-285270380D01*
X304826690Y-285270380D01*
X304683833Y-285318000D01*
X304588595Y-285413238D01*
X304540976Y-285508476D01*
X304493357Y-285698952D01*
X304493357Y-285841809D01*
X304540976Y-286032285D01*
X304588595Y-286127523D01*
X304683833Y-286222761D01*
X304826690Y-286270380D01*
X305064785Y-286270380D01*
X303636214Y-285603714D02*
X303636214Y-286270380D01*
X303874309Y-285222761D02*
X304112404Y-285937047D01*
X303493357Y-285937047D01*
X303207642Y-285270380D02*
X302540976Y-285270380D01*
X302969547Y-286270380D01*
%TO.C,D17*%
X267254785Y-245270380D02*
X267254785Y-244270380D01*
X267016690Y-244270380D01*
X266873833Y-244318000D01*
X266778595Y-244413238D01*
X266730976Y-244508476D01*
X266683357Y-244698952D01*
X266683357Y-244841809D01*
X266730976Y-245032285D01*
X266778595Y-245127523D01*
X266873833Y-245222761D01*
X267016690Y-245270380D01*
X267254785Y-245270380D01*
X265730976Y-245270380D02*
X266302404Y-245270380D01*
X266016690Y-245270380D02*
X266016690Y-244270380D01*
X266111928Y-244413238D01*
X266207166Y-244508476D01*
X266302404Y-244556095D01*
X265397642Y-244270380D02*
X264730976Y-244270380D01*
X265159547Y-245270380D01*
%TO.C,D4*%
X302778595Y-224270380D02*
X302778595Y-223270380D01*
X302540500Y-223270380D01*
X302397642Y-223318000D01*
X302302404Y-223413238D01*
X302254785Y-223508476D01*
X302207166Y-223698952D01*
X302207166Y-223841809D01*
X302254785Y-224032285D01*
X302302404Y-224127523D01*
X302397642Y-224222761D01*
X302540500Y-224270380D01*
X302778595Y-224270380D01*
X301350023Y-223603714D02*
X301350023Y-224270380D01*
X301588119Y-223222761D02*
X301826214Y-223937047D01*
X301207166Y-223937047D01*
%TO.C,C6*%
X569717642Y-273651333D02*
X569765261Y-273603714D01*
X569812880Y-273460857D01*
X569812880Y-273365619D01*
X569765261Y-273222761D01*
X569670023Y-273127523D01*
X569574785Y-273079904D01*
X569384309Y-273032285D01*
X569241452Y-273032285D01*
X569050976Y-273079904D01*
X568955738Y-273127523D01*
X568860500Y-273222761D01*
X568812880Y-273365619D01*
X568812880Y-273460857D01*
X568860500Y-273603714D01*
X568908119Y-273651333D01*
X568812880Y-274508476D02*
X568812880Y-274318000D01*
X568860500Y-274222761D01*
X568908119Y-274175142D01*
X569050976Y-274079904D01*
X569241452Y-274032285D01*
X569622404Y-274032285D01*
X569717642Y-274079904D01*
X569765261Y-274127523D01*
X569812880Y-274222761D01*
X569812880Y-274413238D01*
X569765261Y-274508476D01*
X569717642Y-274556095D01*
X569622404Y-274603714D01*
X569384309Y-274603714D01*
X569289071Y-274556095D01*
X569241452Y-274508476D01*
X569193833Y-274413238D01*
X569193833Y-274222761D01*
X569241452Y-274127523D01*
X569289071Y-274079904D01*
X569384309Y-274032285D01*
%TO.C,D23*%
X381254785Y-245270380D02*
X381254785Y-244270380D01*
X381016690Y-244270380D01*
X380873833Y-244318000D01*
X380778595Y-244413238D01*
X380730976Y-244508476D01*
X380683357Y-244698952D01*
X380683357Y-244841809D01*
X380730976Y-245032285D01*
X380778595Y-245127523D01*
X380873833Y-245222761D01*
X381016690Y-245270380D01*
X381254785Y-245270380D01*
X380302404Y-244365619D02*
X380254785Y-244318000D01*
X380159547Y-244270380D01*
X379921452Y-244270380D01*
X379826214Y-244318000D01*
X379778595Y-244365619D01*
X379730976Y-244460857D01*
X379730976Y-244556095D01*
X379778595Y-244698952D01*
X380350023Y-245270380D01*
X379730976Y-245270380D01*
X379397642Y-244270380D02*
X378778595Y-244270380D01*
X379111928Y-244651333D01*
X378969071Y-244651333D01*
X378873833Y-244698952D01*
X378826214Y-244746571D01*
X378778595Y-244841809D01*
X378778595Y-245079904D01*
X378826214Y-245175142D01*
X378873833Y-245222761D01*
X378969071Y-245270380D01*
X379254785Y-245270380D01*
X379350023Y-245222761D01*
X379397642Y-245175142D01*
%TO.C,D36*%
X349254785Y-266270380D02*
X349254785Y-265270380D01*
X349016690Y-265270380D01*
X348873833Y-265318000D01*
X348778595Y-265413238D01*
X348730976Y-265508476D01*
X348683357Y-265698952D01*
X348683357Y-265841809D01*
X348730976Y-266032285D01*
X348778595Y-266127523D01*
X348873833Y-266222761D01*
X349016690Y-266270380D01*
X349254785Y-266270380D01*
X348350023Y-265270380D02*
X347730976Y-265270380D01*
X348064309Y-265651333D01*
X347921452Y-265651333D01*
X347826214Y-265698952D01*
X347778595Y-265746571D01*
X347730976Y-265841809D01*
X347730976Y-266079904D01*
X347778595Y-266175142D01*
X347826214Y-266222761D01*
X347921452Y-266270380D01*
X348207166Y-266270380D01*
X348302404Y-266222761D01*
X348350023Y-266175142D01*
X346873833Y-265270380D02*
X347064309Y-265270380D01*
X347159547Y-265318000D01*
X347207166Y-265365619D01*
X347302404Y-265508476D01*
X347350023Y-265698952D01*
X347350023Y-266079904D01*
X347302404Y-266175142D01*
X347254785Y-266222761D01*
X347159547Y-266270380D01*
X346969071Y-266270380D01*
X346873833Y-266222761D01*
X346826214Y-266175142D01*
X346778595Y-266079904D01*
X346778595Y-265841809D01*
X346826214Y-265746571D01*
X346873833Y-265698952D01*
X346969071Y-265651333D01*
X347159547Y-265651333D01*
X347254785Y-265698952D01*
X347302404Y-265746571D01*
X347350023Y-265841809D01*
%TO.C,D66*%
X549254785Y-307270380D02*
X549254785Y-306270380D01*
X549016690Y-306270380D01*
X548873833Y-306318000D01*
X548778595Y-306413238D01*
X548730976Y-306508476D01*
X548683357Y-306698952D01*
X548683357Y-306841809D01*
X548730976Y-307032285D01*
X548778595Y-307127523D01*
X548873833Y-307222761D01*
X549016690Y-307270380D01*
X549254785Y-307270380D01*
X547826214Y-306270380D02*
X548016690Y-306270380D01*
X548111928Y-306318000D01*
X548159547Y-306365619D01*
X548254785Y-306508476D01*
X548302404Y-306698952D01*
X548302404Y-307079904D01*
X548254785Y-307175142D01*
X548207166Y-307222761D01*
X548111928Y-307270380D01*
X547921452Y-307270380D01*
X547826214Y-307222761D01*
X547778595Y-307175142D01*
X547730976Y-307079904D01*
X547730976Y-306841809D01*
X547778595Y-306746571D01*
X547826214Y-306698952D01*
X547921452Y-306651333D01*
X548111928Y-306651333D01*
X548207166Y-306698952D01*
X548254785Y-306746571D01*
X548302404Y-306841809D01*
X546873833Y-306270380D02*
X547064309Y-306270380D01*
X547159547Y-306318000D01*
X547207166Y-306365619D01*
X547302404Y-306508476D01*
X547350023Y-306698952D01*
X547350023Y-307079904D01*
X547302404Y-307175142D01*
X547254785Y-307222761D01*
X547159547Y-307270380D01*
X546969071Y-307270380D01*
X546873833Y-307222761D01*
X546826214Y-307175142D01*
X546778595Y-307079904D01*
X546778595Y-306841809D01*
X546826214Y-306746571D01*
X546873833Y-306698952D01*
X546969071Y-306651333D01*
X547159547Y-306651333D01*
X547254785Y-306698952D01*
X547302404Y-306746571D01*
X547350023Y-306841809D01*
%TO.C,D1*%
X246588595Y-224270380D02*
X246588595Y-223270380D01*
X246350500Y-223270380D01*
X246207642Y-223318000D01*
X246112404Y-223413238D01*
X246064785Y-223508476D01*
X246017166Y-223698952D01*
X246017166Y-223841809D01*
X246064785Y-224032285D01*
X246112404Y-224127523D01*
X246207642Y-224222761D01*
X246350500Y-224270380D01*
X246588595Y-224270380D01*
X245064785Y-224270380D02*
X245636214Y-224270380D01*
X245350500Y-224270380D02*
X245350500Y-223270380D01*
X245445738Y-223413238D01*
X245540976Y-223508476D01*
X245636214Y-223556095D01*
%TO.C,D45*%
X266254785Y-286270380D02*
X266254785Y-285270380D01*
X266016690Y-285270380D01*
X265873833Y-285318000D01*
X265778595Y-285413238D01*
X265730976Y-285508476D01*
X265683357Y-285698952D01*
X265683357Y-285841809D01*
X265730976Y-286032285D01*
X265778595Y-286127523D01*
X265873833Y-286222761D01*
X266016690Y-286270380D01*
X266254785Y-286270380D01*
X264826214Y-285603714D02*
X264826214Y-286270380D01*
X265064309Y-285222761D02*
X265302404Y-285937047D01*
X264683357Y-285937047D01*
X263826214Y-285270380D02*
X264302404Y-285270380D01*
X264350023Y-285746571D01*
X264302404Y-285698952D01*
X264207166Y-285651333D01*
X263969071Y-285651333D01*
X263873833Y-285698952D01*
X263826214Y-285746571D01*
X263778595Y-285841809D01*
X263778595Y-286079904D01*
X263826214Y-286175142D01*
X263873833Y-286222761D01*
X263969071Y-286270380D01*
X264207166Y-286270380D01*
X264302404Y-286222761D01*
X264350023Y-286175142D01*
%TO.C,C7*%
X583207166Y-268495142D02*
X583254785Y-268542761D01*
X583397642Y-268590380D01*
X583492880Y-268590380D01*
X583635738Y-268542761D01*
X583730976Y-268447523D01*
X583778595Y-268352285D01*
X583826214Y-268161809D01*
X583826214Y-268018952D01*
X583778595Y-267828476D01*
X583730976Y-267733238D01*
X583635738Y-267638000D01*
X583492880Y-267590380D01*
X583397642Y-267590380D01*
X583254785Y-267638000D01*
X583207166Y-267685619D01*
X582873833Y-267590380D02*
X582207166Y-267590380D01*
X582635738Y-268590380D01*
%TO.C,D5*%
X322588595Y-224270380D02*
X322588595Y-223270380D01*
X322350500Y-223270380D01*
X322207642Y-223318000D01*
X322112404Y-223413238D01*
X322064785Y-223508476D01*
X322017166Y-223698952D01*
X322017166Y-223841809D01*
X322064785Y-224032285D01*
X322112404Y-224127523D01*
X322207642Y-224222761D01*
X322350500Y-224270380D01*
X322588595Y-224270380D01*
X321112404Y-223270380D02*
X321588595Y-223270380D01*
X321636214Y-223746571D01*
X321588595Y-223698952D01*
X321493357Y-223651333D01*
X321255261Y-223651333D01*
X321160023Y-223698952D01*
X321112404Y-223746571D01*
X321064785Y-223841809D01*
X321064785Y-224079904D01*
X321112404Y-224175142D01*
X321160023Y-224222761D01*
X321255261Y-224270380D01*
X321493357Y-224270380D01*
X321588595Y-224222761D01*
X321636214Y-224175142D01*
D11*
%TO.C,R24*%
X561305064Y-296553000D02*
X560850936Y-296553000D01*
X561305064Y-295083000D02*
X560850936Y-295083000D01*
%TO.C,D46*%
X287100500Y-286818000D02*
X283200500Y-286818000D01*
X287100500Y-288818000D02*
X283200500Y-288818000D01*
X287100500Y-286818000D02*
X287100500Y-288818000D01*
%TO.C,D29*%
X507290500Y-247818000D02*
X503390500Y-247818000D01*
X507290500Y-245818000D02*
X507290500Y-247818000D01*
X507290500Y-245818000D02*
X503390500Y-245818000D01*
%TO.C,D55*%
X453415500Y-286698000D02*
X449515500Y-286698000D01*
X453415500Y-286698000D02*
X453415500Y-288698000D01*
X453415500Y-288698000D02*
X449515500Y-288698000D01*
%TO.C,R28*%
X561267564Y-321083000D02*
X560813436Y-321083000D01*
X561267564Y-322553000D02*
X560813436Y-322553000D01*
%TO.C,D50*%
X364290500Y-288818000D02*
X360390500Y-288818000D01*
X364290500Y-286818000D02*
X364290500Y-288818000D01*
X364290500Y-286818000D02*
X360390500Y-286818000D01*
%TO.C,D6*%
X343290500Y-224818000D02*
X343290500Y-226818000D01*
X343290500Y-224818000D02*
X339390500Y-224818000D01*
X343290500Y-226818000D02*
X339390500Y-226818000D01*
%TO.C,D9*%
X401290500Y-224818000D02*
X397390500Y-224818000D01*
X401290500Y-226818000D02*
X397390500Y-226818000D01*
X401290500Y-224818000D02*
X401290500Y-226818000D01*
%TO.C,D14*%
X497290500Y-224818000D02*
X497290500Y-226818000D01*
X497290500Y-224818000D02*
X493390500Y-224818000D01*
X497290500Y-226818000D02*
X493390500Y-226818000D01*
%TO.C,D11*%
X440290500Y-224818000D02*
X436390500Y-224818000D01*
X440290500Y-224818000D02*
X440290500Y-226818000D01*
X440290500Y-226818000D02*
X436390500Y-226818000D01*
%TO.C,D58*%
X264100500Y-308818000D02*
X260200500Y-308818000D01*
X264100500Y-306818000D02*
X260200500Y-306818000D01*
X264100500Y-306818000D02*
X264100500Y-308818000D01*
%TO.C,C9*%
X587775500Y-279079252D02*
X587775500Y-278556748D01*
X586305500Y-279079252D02*
X586305500Y-278556748D01*
%TO.C,D21*%
X345290500Y-245818000D02*
X345290500Y-247818000D01*
X345290500Y-247818000D02*
X341390500Y-247818000D01*
X345290500Y-245818000D02*
X341390500Y-245818000D01*
%TO.C,D60*%
X327638000Y-308848000D02*
X323738000Y-308848000D01*
X327638000Y-306848000D02*
X327638000Y-308848000D01*
X327638000Y-306848000D02*
X323738000Y-306848000D01*
%TO.C,D22*%
X364290500Y-245818000D02*
X364290500Y-247818000D01*
X364290500Y-245818000D02*
X360390500Y-245818000D01*
X364290500Y-247818000D02*
X360390500Y-247818000D01*
%TO.C,D15*%
X521290500Y-226818000D02*
X517390500Y-226818000D01*
X521290500Y-224818000D02*
X521290500Y-226818000D01*
X521290500Y-224818000D02*
X517390500Y-224818000D01*
%TO.C,D52*%
X402290500Y-286818000D02*
X398390500Y-286818000D01*
X402290500Y-286818000D02*
X402290500Y-288818000D01*
X402290500Y-288818000D02*
X398390500Y-288818000D01*
%TO.C,D2*%
X267290500Y-224818000D02*
X263390500Y-224818000D01*
X267290500Y-224818000D02*
X267290500Y-226818000D01*
X267290500Y-226818000D02*
X263390500Y-226818000D01*
%TO.C,R27*%
X561305064Y-316553000D02*
X560850936Y-316553000D01*
X561305064Y-315083000D02*
X560850936Y-315083000D01*
%TO.C,D7*%
X362290500Y-226818000D02*
X358390500Y-226818000D01*
X362290500Y-224818000D02*
X362290500Y-226818000D01*
X362290500Y-224818000D02*
X358390500Y-224818000D01*
%TO.C,D28*%
X479290500Y-247818000D02*
X475390500Y-247818000D01*
X479290500Y-245818000D02*
X479290500Y-247818000D01*
X479290500Y-245818000D02*
X475390500Y-245818000D01*
%TO.C,D49*%
X344290500Y-286818000D02*
X344290500Y-288818000D01*
X344290500Y-288818000D02*
X340390500Y-288818000D01*
X344290500Y-286818000D02*
X340390500Y-286818000D01*
%TO.C,D39*%
X409290500Y-266818000D02*
X405390500Y-266818000D01*
X409290500Y-268818000D02*
X405390500Y-268818000D01*
X409290500Y-266818000D02*
X409290500Y-268818000D01*
%TO.C,R26*%
X561305064Y-308083000D02*
X560850936Y-308083000D01*
X561305064Y-309553000D02*
X560850936Y-309553000D01*
%TO.C,D64*%
X514100500Y-309818000D02*
X510200500Y-309818000D01*
X514100500Y-307818000D02*
X514100500Y-309818000D01*
X514100500Y-307818000D02*
X510200500Y-307818000D01*
%TO.C,D41*%
X447290500Y-266818000D02*
X443390500Y-266818000D01*
X447290500Y-266818000D02*
X447290500Y-268818000D01*
X447290500Y-268818000D02*
X443390500Y-268818000D01*
%TO.C,D32*%
X273290500Y-266818000D02*
X273290500Y-268818000D01*
X273290500Y-268818000D02*
X269390500Y-268818000D01*
X273290500Y-266818000D02*
X269390500Y-266818000D01*
%TO.C,D18*%
X287290500Y-245818000D02*
X287290500Y-247818000D01*
X287290500Y-247818000D02*
X283390500Y-247818000D01*
X287290500Y-245818000D02*
X283390500Y-245818000D01*
%TO.C,D44*%
X526290500Y-265818000D02*
X526290500Y-267818000D01*
X526290500Y-267818000D02*
X522390500Y-267818000D01*
X526290500Y-265818000D02*
X522390500Y-265818000D01*
%TO.C,D62*%
X464100500Y-308818000D02*
X460200500Y-308818000D01*
X464100500Y-306818000D02*
X464100500Y-308818000D01*
X464100500Y-306818000D02*
X460200500Y-306818000D01*
%TO.C,D8*%
X381290500Y-224818000D02*
X377390500Y-224818000D01*
X381290500Y-226818000D02*
X377390500Y-226818000D01*
X381290500Y-224818000D02*
X381290500Y-226818000D01*
%TO.C,D56*%
X499100500Y-287818000D02*
X499100500Y-289818000D01*
X499100500Y-289818000D02*
X495200500Y-289818000D01*
X499100500Y-287818000D02*
X495200500Y-287818000D01*
%TO.C,D35*%
X328290500Y-268818000D02*
X324390500Y-268818000D01*
X328290500Y-266818000D02*
X324390500Y-266818000D01*
X328290500Y-266818000D02*
X328290500Y-268818000D01*
%TO.C,D57*%
X530290500Y-288818000D02*
X526390500Y-288818000D01*
X530290500Y-288818000D02*
X530290500Y-290818000D01*
X530290500Y-290818000D02*
X526390500Y-290818000D01*
%TO.C,D10*%
X420290500Y-226818000D02*
X416390500Y-226818000D01*
X420290500Y-224818000D02*
X416390500Y-224818000D01*
X420290500Y-224818000D02*
X420290500Y-226818000D01*
%TO.C,D19*%
X306290500Y-247818000D02*
X302390500Y-247818000D01*
X306290500Y-245818000D02*
X302390500Y-245818000D01*
X306290500Y-245818000D02*
X306290500Y-247818000D01*
%TO.C,D38*%
X390290500Y-266818000D02*
X390290500Y-268818000D01*
X390290500Y-268818000D02*
X386390500Y-268818000D01*
X390290500Y-266818000D02*
X386390500Y-266818000D01*
%TO.C,D63*%
X481100500Y-306818000D02*
X477200500Y-306818000D01*
X481100500Y-308818000D02*
X477200500Y-308818000D01*
X481100500Y-306818000D02*
X481100500Y-308818000D01*
%TO.C,D26*%
X440290500Y-247818000D02*
X436390500Y-247818000D01*
X440290500Y-245818000D02*
X436390500Y-245818000D01*
X440290500Y-245818000D02*
X440290500Y-247818000D01*
%TO.C,D54*%
X440290500Y-288818000D02*
X436390500Y-288818000D01*
X440290500Y-286818000D02*
X436390500Y-286818000D01*
X440290500Y-286818000D02*
X440290500Y-288818000D01*
%TO.C,D20*%
X325290500Y-245818000D02*
X325290500Y-247818000D01*
X325290500Y-245818000D02*
X321390500Y-245818000D01*
X325290500Y-247818000D02*
X321390500Y-247818000D01*
%TO.C,D33*%
X292290500Y-266818000D02*
X288390500Y-266818000D01*
X292290500Y-268818000D02*
X288390500Y-268818000D01*
X292290500Y-266818000D02*
X292290500Y-268818000D01*
%TO.C,D37*%
X370290500Y-266818000D02*
X370290500Y-268818000D01*
X370290500Y-268818000D02*
X366390500Y-268818000D01*
X370290500Y-266818000D02*
X366390500Y-266818000D01*
%TO.C,D13*%
X478100500Y-226818000D02*
X474200500Y-226818000D01*
X478100500Y-224818000D02*
X474200500Y-224818000D01*
X478100500Y-224818000D02*
X478100500Y-226818000D01*
%TO.C,D48*%
X325100500Y-288818000D02*
X321200500Y-288818000D01*
X325100500Y-286818000D02*
X321200500Y-286818000D01*
X325100500Y-286818000D02*
X325100500Y-288818000D01*
%TO.C,D27*%
X459290500Y-245818000D02*
X459290500Y-247818000D01*
X459290500Y-247818000D02*
X455390500Y-247818000D01*
X459290500Y-245818000D02*
X455390500Y-245818000D01*
%TO.C,D16*%
X248290500Y-245818000D02*
X248290500Y-247818000D01*
X248290500Y-247818000D02*
X244390500Y-247818000D01*
X248290500Y-245818000D02*
X244390500Y-245818000D01*
%TO.C,MCU1*%
X582650500Y-281428000D02*
X582650500Y-280978000D01*
X575880500Y-274208000D02*
X575430500Y-274208000D01*
X575430500Y-281428000D02*
X575430500Y-280978000D01*
X582650500Y-274208000D02*
X582650500Y-274658000D01*
X575880500Y-281428000D02*
X575430500Y-281428000D01*
X582200500Y-281428000D02*
X582650500Y-281428000D01*
X582650500Y-274658000D02*
X583940500Y-274658000D01*
X575430500Y-274208000D02*
X575430500Y-274658000D01*
X582200500Y-274208000D02*
X582650500Y-274208000D01*
%TO.C,D24*%
X402100500Y-247818000D02*
X398200500Y-247818000D01*
X402100500Y-245818000D02*
X402100500Y-247818000D01*
X402100500Y-245818000D02*
X398200500Y-245818000D01*
%TO.C,D30*%
X524100500Y-245818000D02*
X520200500Y-245818000D01*
X524100500Y-245818000D02*
X524100500Y-247818000D01*
X524100500Y-247818000D02*
X520200500Y-247818000D01*
%TO.C,D65*%
X534100500Y-307818000D02*
X534100500Y-309818000D01*
X534100500Y-309818000D02*
X530200500Y-309818000D01*
X534100500Y-307818000D02*
X530200500Y-307818000D01*
%TO.C,D12*%
X459290500Y-226818000D02*
X455390500Y-226818000D01*
X459290500Y-224818000D02*
X459290500Y-226818000D01*
X459290500Y-224818000D02*
X455390500Y-224818000D01*
%TO.C,D51*%
X383100500Y-288818000D02*
X379200500Y-288818000D01*
X383100500Y-286818000D02*
X383100500Y-288818000D01*
X383100500Y-286818000D02*
X379200500Y-286818000D01*
%TO.C,D53*%
X421290500Y-286818000D02*
X417390500Y-286818000D01*
X421290500Y-286818000D02*
X421290500Y-288818000D01*
X421290500Y-288818000D02*
X417390500Y-288818000D01*
%TO.C,D3*%
X287100500Y-224818000D02*
X287100500Y-226818000D01*
X287100500Y-226818000D02*
X283200500Y-226818000D01*
X287100500Y-224818000D02*
X283200500Y-224818000D01*
%TO.C,R25*%
X561305064Y-302553000D02*
X560850936Y-302553000D01*
X561305064Y-301083000D02*
X560850936Y-301083000D01*
%TO.C,C8*%
X575779248Y-286553000D02*
X576301752Y-286553000D01*
X575779248Y-285083000D02*
X576301752Y-285083000D01*
%TO.C,D42*%
X475455500Y-266708000D02*
X475455500Y-268708000D01*
X475455500Y-268708000D02*
X471555500Y-268708000D01*
X475455500Y-266708000D02*
X471555500Y-266708000D01*
%TO.C,D40*%
X428290500Y-266818000D02*
X428290500Y-268818000D01*
X428290500Y-268818000D02*
X424390500Y-268818000D01*
X428290500Y-266818000D02*
X424390500Y-266818000D01*
%TO.C,D25*%
X421290500Y-247818000D02*
X417390500Y-247818000D01*
X421290500Y-245818000D02*
X421290500Y-247818000D01*
X421290500Y-245818000D02*
X417390500Y-245818000D01*
%TO.C,D31*%
X254290500Y-266818000D02*
X250390500Y-266818000D01*
X254290500Y-268818000D02*
X250390500Y-268818000D01*
X254290500Y-266818000D02*
X254290500Y-268818000D01*
%TO.C,D59*%
X287290500Y-306818000D02*
X287290500Y-308818000D01*
X287290500Y-308818000D02*
X283390500Y-308818000D01*
X287290500Y-306818000D02*
X283390500Y-306818000D01*
%TO.C,D43*%
X510290500Y-267818000D02*
X506390500Y-267818000D01*
X510290500Y-265818000D02*
X506390500Y-265818000D01*
X510290500Y-265818000D02*
X510290500Y-267818000D01*
%TO.C,D61*%
X434290500Y-306818000D02*
X430390500Y-306818000D01*
X434290500Y-306818000D02*
X434290500Y-308818000D01*
X434290500Y-308818000D02*
X430390500Y-308818000D01*
%TO.C,D34*%
X309290500Y-268818000D02*
X305390500Y-268818000D01*
X309290500Y-266818000D02*
X305390500Y-266818000D01*
X309290500Y-266818000D02*
X309290500Y-268818000D01*
%TO.C,D47*%
X306100500Y-286818000D02*
X302200500Y-286818000D01*
X306100500Y-288818000D02*
X302200500Y-288818000D01*
X306100500Y-286818000D02*
X306100500Y-288818000D01*
%TO.C,D17*%
X268290500Y-245818000D02*
X268290500Y-247818000D01*
X268290500Y-247818000D02*
X264390500Y-247818000D01*
X268290500Y-245818000D02*
X264390500Y-245818000D01*
%TO.C,D4*%
X304290500Y-226818000D02*
X300390500Y-226818000D01*
X304290500Y-224818000D02*
X300390500Y-224818000D01*
X304290500Y-224818000D02*
X304290500Y-226818000D01*
%TO.C,C6*%
X570305500Y-273556748D02*
X570305500Y-274079252D01*
X571775500Y-273556748D02*
X571775500Y-274079252D01*
%TO.C,D23*%
X382290500Y-247818000D02*
X378390500Y-247818000D01*
X382290500Y-245818000D02*
X382290500Y-247818000D01*
X382290500Y-245818000D02*
X378390500Y-245818000D01*
%TO.C,D36*%
X350290500Y-266818000D02*
X350290500Y-268818000D01*
X350290500Y-266818000D02*
X346390500Y-266818000D01*
X350290500Y-268818000D02*
X346390500Y-268818000D01*
%TO.C,D66*%
X550290500Y-309818000D02*
X546390500Y-309818000D01*
X550290500Y-307818000D02*
X550290500Y-309818000D01*
X550290500Y-307818000D02*
X546390500Y-307818000D01*
%TO.C,D1*%
X248100500Y-224818000D02*
X248100500Y-226818000D01*
X248100500Y-224818000D02*
X244200500Y-224818000D01*
X248100500Y-226818000D02*
X244200500Y-226818000D01*
%TO.C,D45*%
X267290500Y-286818000D02*
X267290500Y-288818000D01*
X267290500Y-286818000D02*
X263390500Y-286818000D01*
X267290500Y-288818000D02*
X263390500Y-288818000D01*
%TO.C,C7*%
X583301752Y-270553000D02*
X582779248Y-270553000D01*
X583301752Y-269083000D02*
X582779248Y-269083000D01*
%TO.C,D5*%
X324100500Y-224818000D02*
X320200500Y-224818000D01*
X324100500Y-224818000D02*
X324100500Y-226818000D01*
X324100500Y-226818000D02*
X320200500Y-226818000D01*
%TD*%
M02*
