%TF.GenerationSoftware,KiCad,Pcbnew,(6.0.4)*%
%TF.CreationDate,2023-03-10T15:04:03-05:00*%
%TF.ProjectId,main_board,6d61696e-5f62-46f6-9172-642e6b696361,v01*%
%TF.SameCoordinates,Original*%
%TF.FileFunction,Paste,Top*%
%TF.FilePolarity,Positive*%
%FSLAX46Y46*%
G04 Gerber Fmt 4.6, Leading zero omitted, Abs format (unit mm)*
G04 Created by KiCad (PCBNEW (6.0.4)) date 2023-03-10 15:04:03*
%MOMM*%
%LPD*%
G01*
G04 APERTURE LIST*
G04 Aperture macros list*
%AMRoundRect*
0 Rectangle with rounded corners*
0 $1 Rounding radius*
0 $2 $3 $4 $5 $6 $7 $8 $9 X,Y pos of 4 corners*
0 Add a 4 corners polygon primitive as box body*
4,1,4,$2,$3,$4,$5,$6,$7,$8,$9,$2,$3,0*
0 Add four circle primitives for the rounded corners*
1,1,$1+$1,$2,$3*
1,1,$1+$1,$4,$5*
1,1,$1+$1,$6,$7*
1,1,$1+$1,$8,$9*
0 Add four rect primitives between the rounded corners*
20,1,$1+$1,$2,$3,$4,$5,0*
20,1,$1+$1,$4,$5,$6,$7,0*
20,1,$1+$1,$6,$7,$8,$9,0*
20,1,$1+$1,$8,$9,$2,$3,0*%
G04 Aperture macros list end*
%ADD10RoundRect,0.250000X-0.350000X-0.450000X0.350000X-0.450000X0.350000X0.450000X-0.350000X0.450000X0*%
%ADD11RoundRect,0.250000X-0.337500X-0.475000X0.337500X-0.475000X0.337500X0.475000X-0.337500X0.475000X0*%
%ADD12R,1.550000X1.300000*%
%ADD13R,2.000000X1.500000*%
%ADD14R,2.000000X3.800000*%
%ADD15RoundRect,0.250000X0.450000X-0.350000X0.450000X0.350000X-0.450000X0.350000X-0.450000X-0.350000X0*%
%ADD16RoundRect,0.250000X-0.450000X0.350000X-0.450000X-0.350000X0.450000X-0.350000X0.450000X0.350000X0*%
%ADD17R,0.400000X1.650000*%
%ADD18R,1.350000X2.000000*%
%ADD19R,1.430000X2.500000*%
%ADD20R,1.825000X0.700000*%
%ADD21RoundRect,0.250000X-0.475000X0.337500X-0.475000X-0.337500X0.475000X-0.337500X0.475000X0.337500X0*%
%ADD22R,0.700000X0.450000*%
%ADD23RoundRect,0.250000X0.350000X0.450000X-0.350000X0.450000X-0.350000X-0.450000X0.350000X-0.450000X0*%
G04 APERTURE END LIST*
D10*
%TO.C,R18*%
X393040500Y-194818000D03*
X395040500Y-194818000D03*
%TD*%
%TO.C,R7*%
X550696500Y-275012000D03*
X552696500Y-275012000D03*
%TD*%
%TO.C,R19*%
X412040500Y-194818000D03*
X414040500Y-194818000D03*
%TD*%
D11*
%TO.C,C3*%
X556860500Y-205920000D03*
X558935500Y-205920000D03*
%TD*%
D10*
%TO.C,R15*%
X335040500Y-194818000D03*
X337040500Y-194818000D03*
%TD*%
%TO.C,R9*%
X221040500Y-194818000D03*
X223040500Y-194818000D03*
%TD*%
%TO.C,R22*%
X471040500Y-194818000D03*
X473040500Y-194818000D03*
%TD*%
D12*
%TO.C,SW1*%
X604595500Y-284668000D03*
X596645500Y-284668000D03*
X604595500Y-280168000D03*
X596645500Y-280168000D03*
%TD*%
D13*
%TO.C,U2*%
X551978000Y-209070000D03*
X551978000Y-206770000D03*
D14*
X545678000Y-206770000D03*
D13*
X551978000Y-204470000D03*
%TD*%
D15*
%TO.C,R5*%
X597230500Y-292648000D03*
X597230500Y-290648000D03*
%TD*%
D16*
%TO.C,R2*%
X571516000Y-198410000D03*
X571516000Y-200410000D03*
%TD*%
D11*
%TO.C,C5*%
X590693000Y-270748000D03*
X592768000Y-270748000D03*
%TD*%
D17*
%TO.C,J1*%
X571373000Y-190387500D03*
X570723000Y-190387500D03*
X570073000Y-190387500D03*
X569423000Y-190387500D03*
X568773000Y-190387500D03*
D13*
X572923000Y-190487500D03*
D18*
X567323000Y-188437500D03*
D19*
X569113000Y-187237500D03*
X571033000Y-187237500D03*
D13*
X567173000Y-190507500D03*
D18*
X572803000Y-188437500D03*
D20*
X567073000Y-189187500D03*
X573023000Y-189187500D03*
%TD*%
D21*
%TO.C,C2*%
X609620500Y-280380500D03*
X609620500Y-282455500D03*
%TD*%
D10*
%TO.C,R12*%
X278040500Y-194818000D03*
X280040500Y-194818000D03*
%TD*%
D22*
%TO.C,U3*%
X589620500Y-272838000D03*
X589620500Y-274138000D03*
X591620500Y-273488000D03*
%TD*%
D11*
%TO.C,C4*%
X556790500Y-209230000D03*
X558865500Y-209230000D03*
%TD*%
D10*
%TO.C,R20*%
X431040500Y-194818000D03*
X433040500Y-194818000D03*
%TD*%
%TO.C,R4*%
X609190500Y-286448000D03*
X611190500Y-286448000D03*
%TD*%
D11*
%TO.C,C1*%
X542010500Y-198622500D03*
X544085500Y-198622500D03*
%TD*%
D23*
%TO.C,R8*%
X562040500Y-289818000D03*
X560040500Y-289818000D03*
%TD*%
D10*
%TO.C,R11*%
X259003000Y-194818000D03*
X261003000Y-194818000D03*
%TD*%
D16*
%TO.C,R1*%
X569258000Y-198400000D03*
X569258000Y-200400000D03*
%TD*%
D10*
%TO.C,R10*%
X240040500Y-194818000D03*
X242040500Y-194818000D03*
%TD*%
%TO.C,R14*%
X316040500Y-194818000D03*
X318040500Y-194818000D03*
%TD*%
%TO.C,R13*%
X297040500Y-194818000D03*
X299040500Y-194818000D03*
%TD*%
%TO.C,R16*%
X354040500Y-194818000D03*
X356040500Y-194818000D03*
%TD*%
%TO.C,R17*%
X373003000Y-194818000D03*
X375003000Y-194818000D03*
%TD*%
%TO.C,R23*%
X495040500Y-194818000D03*
X497040500Y-194818000D03*
%TD*%
D15*
%TO.C,R6*%
X592430500Y-292588000D03*
X592430500Y-290588000D03*
%TD*%
%TO.C,R3*%
X574488000Y-200410000D03*
X574488000Y-198410000D03*
%TD*%
D10*
%TO.C,R21*%
X451040500Y-194818000D03*
X453040500Y-194818000D03*
%TD*%
M02*
