%TF.GenerationSoftware,KiCad,Pcbnew,(6.0.4)*%
%TF.CreationDate,2023-03-10T15:04:03-05:00*%
%TF.ProjectId,main_board,6d61696e-5f62-46f6-9172-642e6b696361,v01*%
%TF.SameCoordinates,Original*%
%TF.FileFunction,Paste,Bot*%
%TF.FilePolarity,Positive*%
%FSLAX46Y46*%
G04 Gerber Fmt 4.6, Leading zero omitted, Abs format (unit mm)*
G04 Created by KiCad (PCBNEW (6.0.4)) date 2023-03-10 15:04:03*
%MOMM*%
%LPD*%
G01*
G04 APERTURE LIST*
G04 Aperture macros list*
%AMRoundRect*
0 Rectangle with rounded corners*
0 $1 Rounding radius*
0 $2 $3 $4 $5 $6 $7 $8 $9 X,Y pos of 4 corners*
0 Add a 4 corners polygon primitive as box body*
4,1,4,$2,$3,$4,$5,$6,$7,$8,$9,$2,$3,0*
0 Add four circle primitives for the rounded corners*
1,1,$1+$1,$2,$3*
1,1,$1+$1,$4,$5*
1,1,$1+$1,$6,$7*
1,1,$1+$1,$8,$9*
0 Add four rect primitives between the rounded corners*
20,1,$1+$1,$2,$3,$4,$5,0*
20,1,$1+$1,$4,$5,$6,$7,0*
20,1,$1+$1,$6,$7,$8,$9,0*
20,1,$1+$1,$8,$9,$2,$3,0*%
G04 Aperture macros list end*
%ADD10RoundRect,0.250000X0.350000X0.450000X-0.350000X0.450000X-0.350000X-0.450000X0.350000X-0.450000X0*%
%ADD11R,0.900000X1.200000*%
%ADD12RoundRect,0.250000X0.475000X-0.337500X0.475000X0.337500X-0.475000X0.337500X-0.475000X-0.337500X0*%
%ADD13RoundRect,0.075000X0.662500X0.075000X-0.662500X0.075000X-0.662500X-0.075000X0.662500X-0.075000X0*%
%ADD14RoundRect,0.075000X0.075000X0.662500X-0.075000X0.662500X-0.075000X-0.662500X0.075000X-0.662500X0*%
%ADD15RoundRect,0.250000X-0.337500X-0.475000X0.337500X-0.475000X0.337500X0.475000X-0.337500X0.475000X0*%
%ADD16RoundRect,0.250000X-0.475000X0.337500X-0.475000X-0.337500X0.475000X-0.337500X0.475000X0.337500X0*%
%ADD17RoundRect,0.250000X0.337500X0.475000X-0.337500X0.475000X-0.337500X-0.475000X0.337500X-0.475000X0*%
G04 APERTURE END LIST*
D10*
%TO.C,R24*%
X562078000Y-295818000D03*
X560078000Y-295818000D03*
%TD*%
D11*
%TO.C,D46*%
X286500500Y-287818000D03*
X283200500Y-287818000D03*
%TD*%
%TO.C,D29*%
X506690500Y-246818000D03*
X503390500Y-246818000D03*
%TD*%
%TO.C,D55*%
X452815500Y-287698000D03*
X449515500Y-287698000D03*
%TD*%
D10*
%TO.C,R28*%
X562040500Y-321818000D03*
X560040500Y-321818000D03*
%TD*%
D11*
%TO.C,D50*%
X363690500Y-287818000D03*
X360390500Y-287818000D03*
%TD*%
%TO.C,D6*%
X342690500Y-225818000D03*
X339390500Y-225818000D03*
%TD*%
%TO.C,D9*%
X400690500Y-225818000D03*
X397390500Y-225818000D03*
%TD*%
%TO.C,D14*%
X496690500Y-225818000D03*
X493390500Y-225818000D03*
%TD*%
%TO.C,D11*%
X439690500Y-225818000D03*
X436390500Y-225818000D03*
%TD*%
%TO.C,D58*%
X263500500Y-307818000D03*
X260200500Y-307818000D03*
%TD*%
D12*
%TO.C,C9*%
X587040500Y-279855500D03*
X587040500Y-277780500D03*
%TD*%
D11*
%TO.C,D21*%
X344690500Y-246818000D03*
X341390500Y-246818000D03*
%TD*%
%TO.C,D60*%
X327038000Y-307848000D03*
X323738000Y-307848000D03*
%TD*%
%TO.C,D22*%
X363690500Y-246818000D03*
X360390500Y-246818000D03*
%TD*%
%TO.C,D15*%
X520690500Y-225818000D03*
X517390500Y-225818000D03*
%TD*%
%TO.C,D52*%
X401690500Y-287818000D03*
X398390500Y-287818000D03*
%TD*%
%TO.C,D2*%
X266690500Y-225818000D03*
X263390500Y-225818000D03*
%TD*%
D10*
%TO.C,R27*%
X562078000Y-315818000D03*
X560078000Y-315818000D03*
%TD*%
D11*
%TO.C,D7*%
X361690500Y-225818000D03*
X358390500Y-225818000D03*
%TD*%
%TO.C,D28*%
X478690500Y-246818000D03*
X475390500Y-246818000D03*
%TD*%
%TO.C,D49*%
X343690500Y-287818000D03*
X340390500Y-287818000D03*
%TD*%
%TO.C,D39*%
X408690500Y-267818000D03*
X405390500Y-267818000D03*
%TD*%
D10*
%TO.C,R26*%
X562078000Y-308818000D03*
X560078000Y-308818000D03*
%TD*%
D11*
%TO.C,D64*%
X513500500Y-308818000D03*
X510200500Y-308818000D03*
%TD*%
%TO.C,D41*%
X446690500Y-267818000D03*
X443390500Y-267818000D03*
%TD*%
%TO.C,D32*%
X272690500Y-267818000D03*
X269390500Y-267818000D03*
%TD*%
%TO.C,D18*%
X286690500Y-246818000D03*
X283390500Y-246818000D03*
%TD*%
%TO.C,D44*%
X525690500Y-266818000D03*
X522390500Y-266818000D03*
%TD*%
%TO.C,D62*%
X463500500Y-307818000D03*
X460200500Y-307818000D03*
%TD*%
%TO.C,D8*%
X380690500Y-225818000D03*
X377390500Y-225818000D03*
%TD*%
%TO.C,D56*%
X498500500Y-288818000D03*
X495200500Y-288818000D03*
%TD*%
%TO.C,D35*%
X327690500Y-267818000D03*
X324390500Y-267818000D03*
%TD*%
%TO.C,D57*%
X529690500Y-289818000D03*
X526390500Y-289818000D03*
%TD*%
%TO.C,D10*%
X419690500Y-225818000D03*
X416390500Y-225818000D03*
%TD*%
%TO.C,D19*%
X305690500Y-246818000D03*
X302390500Y-246818000D03*
%TD*%
%TO.C,D38*%
X389690500Y-267818000D03*
X386390500Y-267818000D03*
%TD*%
%TO.C,D63*%
X480500500Y-307818000D03*
X477200500Y-307818000D03*
%TD*%
%TO.C,D26*%
X439690500Y-246818000D03*
X436390500Y-246818000D03*
%TD*%
%TO.C,D54*%
X439690500Y-287818000D03*
X436390500Y-287818000D03*
%TD*%
%TO.C,D20*%
X324690500Y-246818000D03*
X321390500Y-246818000D03*
%TD*%
%TO.C,D33*%
X291690500Y-267818000D03*
X288390500Y-267818000D03*
%TD*%
%TO.C,D37*%
X369690500Y-267818000D03*
X366390500Y-267818000D03*
%TD*%
%TO.C,D13*%
X477500500Y-225818000D03*
X474200500Y-225818000D03*
%TD*%
%TO.C,D48*%
X324500500Y-287818000D03*
X321200500Y-287818000D03*
%TD*%
%TO.C,D27*%
X458690500Y-246818000D03*
X455390500Y-246818000D03*
%TD*%
%TO.C,D16*%
X247690500Y-246818000D03*
X244390500Y-246818000D03*
%TD*%
D13*
%TO.C,MCU1*%
X583203000Y-275068000D03*
X583203000Y-275568000D03*
X583203000Y-276068000D03*
X583203000Y-276568000D03*
X583203000Y-277068000D03*
X583203000Y-277568000D03*
X583203000Y-278068000D03*
X583203000Y-278568000D03*
X583203000Y-279068000D03*
X583203000Y-279568000D03*
X583203000Y-280068000D03*
X583203000Y-280568000D03*
D14*
X581790500Y-281980500D03*
X581290500Y-281980500D03*
X580790500Y-281980500D03*
X580290500Y-281980500D03*
X579790500Y-281980500D03*
X579290500Y-281980500D03*
X578790500Y-281980500D03*
X578290500Y-281980500D03*
X577790500Y-281980500D03*
X577290500Y-281980500D03*
X576790500Y-281980500D03*
X576290500Y-281980500D03*
D13*
X574878000Y-280568000D03*
X574878000Y-280068000D03*
X574878000Y-279568000D03*
X574878000Y-279068000D03*
X574878000Y-278568000D03*
X574878000Y-278068000D03*
X574878000Y-277568000D03*
X574878000Y-277068000D03*
X574878000Y-276568000D03*
X574878000Y-276068000D03*
X574878000Y-275568000D03*
X574878000Y-275068000D03*
D14*
X576290500Y-273655500D03*
X576790500Y-273655500D03*
X577290500Y-273655500D03*
X577790500Y-273655500D03*
X578290500Y-273655500D03*
X578790500Y-273655500D03*
X579290500Y-273655500D03*
X579790500Y-273655500D03*
X580290500Y-273655500D03*
X580790500Y-273655500D03*
X581290500Y-273655500D03*
X581790500Y-273655500D03*
%TD*%
D11*
%TO.C,D24*%
X401500500Y-246818000D03*
X398200500Y-246818000D03*
%TD*%
%TO.C,D30*%
X523500500Y-246818000D03*
X520200500Y-246818000D03*
%TD*%
%TO.C,D65*%
X533500500Y-308818000D03*
X530200500Y-308818000D03*
%TD*%
%TO.C,D12*%
X458690500Y-225818000D03*
X455390500Y-225818000D03*
%TD*%
%TO.C,D51*%
X382500500Y-287818000D03*
X379200500Y-287818000D03*
%TD*%
%TO.C,D53*%
X420690500Y-287818000D03*
X417390500Y-287818000D03*
%TD*%
%TO.C,D3*%
X286500500Y-225818000D03*
X283200500Y-225818000D03*
%TD*%
D10*
%TO.C,R25*%
X562078000Y-301818000D03*
X560078000Y-301818000D03*
%TD*%
D15*
%TO.C,C8*%
X575003000Y-285818000D03*
X577078000Y-285818000D03*
%TD*%
D11*
%TO.C,D42*%
X474855500Y-267708000D03*
X471555500Y-267708000D03*
%TD*%
%TO.C,D40*%
X427690500Y-267818000D03*
X424390500Y-267818000D03*
%TD*%
%TO.C,D25*%
X420690500Y-246818000D03*
X417390500Y-246818000D03*
%TD*%
%TO.C,D31*%
X253690500Y-267818000D03*
X250390500Y-267818000D03*
%TD*%
%TO.C,D59*%
X286690500Y-307818000D03*
X283390500Y-307818000D03*
%TD*%
%TO.C,D43*%
X509690500Y-266818000D03*
X506390500Y-266818000D03*
%TD*%
%TO.C,D61*%
X433690500Y-307818000D03*
X430390500Y-307818000D03*
%TD*%
%TO.C,D34*%
X308690500Y-267818000D03*
X305390500Y-267818000D03*
%TD*%
%TO.C,D47*%
X305500500Y-287818000D03*
X302200500Y-287818000D03*
%TD*%
%TO.C,D17*%
X267690500Y-246818000D03*
X264390500Y-246818000D03*
%TD*%
%TO.C,D4*%
X303690500Y-225818000D03*
X300390500Y-225818000D03*
%TD*%
D16*
%TO.C,C6*%
X571040500Y-272780500D03*
X571040500Y-274855500D03*
%TD*%
D11*
%TO.C,D23*%
X381690500Y-246818000D03*
X378390500Y-246818000D03*
%TD*%
%TO.C,D36*%
X349690500Y-267818000D03*
X346390500Y-267818000D03*
%TD*%
%TO.C,D66*%
X549690500Y-308818000D03*
X546390500Y-308818000D03*
%TD*%
%TO.C,D1*%
X247500500Y-225818000D03*
X244200500Y-225818000D03*
%TD*%
%TO.C,D45*%
X266690500Y-287818000D03*
X263390500Y-287818000D03*
%TD*%
D17*
%TO.C,C7*%
X584078000Y-269818000D03*
X582003000Y-269818000D03*
%TD*%
D11*
%TO.C,D5*%
X323500500Y-225818000D03*
X320200500Y-225818000D03*
%TD*%
M02*
