%TF.GenerationSoftware,KiCad,Pcbnew,(6.0.4)*%
%TF.CreationDate,2023-03-10T15:04:28-05:00*%
%TF.ProjectId,Pi_part,50695f70-6172-4742-9e6b-696361645f70,v01*%
%TF.SameCoordinates,Original*%
%TF.FileFunction,Legend,Top*%
%TF.FilePolarity,Positive*%
%FSLAX46Y46*%
G04 Gerber Fmt 4.6, Leading zero omitted, Abs format (unit mm)*
G04 Created by KiCad (PCBNEW (6.0.4)) date 2023-03-10 15:04:28*
%MOMM*%
%LPD*%
G01*
G04 APERTURE LIST*
%ADD10C,0.300000*%
%ADD11C,0.150000*%
%ADD12C,0.120000*%
G04 APERTURE END LIST*
D10*
X201970359Y-70957377D02*
X201970359Y-72290710D01*
X201494168Y-70195472D02*
X201017978Y-71624044D01*
X202256073Y-71624044D01*
X202827502Y-70290710D02*
X204160835Y-70290710D01*
X203303692Y-72290710D01*
X204732263Y-70290710D02*
X206065597Y-70290710D01*
X205208454Y-72290710D01*
X208065597Y-70290710D02*
X209208454Y-70290710D01*
X208637025Y-72290710D02*
X208637025Y-70290710D01*
X210637025Y-72195472D02*
X210446549Y-72290710D01*
X210065597Y-72290710D01*
X209875121Y-72195472D01*
X209779882Y-72004996D01*
X209779882Y-71243091D01*
X209875121Y-71052615D01*
X210065597Y-70957377D01*
X210446549Y-70957377D01*
X210637025Y-71052615D01*
X210732263Y-71243091D01*
X210732263Y-71433568D01*
X209779882Y-71624044D01*
X212446549Y-72290710D02*
X212446549Y-71243091D01*
X212351311Y-71052615D01*
X212160835Y-70957377D01*
X211779882Y-70957377D01*
X211589406Y-71052615D01*
X212446549Y-72195472D02*
X212256073Y-72290710D01*
X211779882Y-72290710D01*
X211589406Y-72195472D01*
X211494168Y-72004996D01*
X211494168Y-71814520D01*
X211589406Y-71624044D01*
X211779882Y-71528806D01*
X212256073Y-71528806D01*
X212446549Y-71433568D01*
X213398930Y-72290710D02*
X213398930Y-70957377D01*
X213398930Y-71147853D02*
X213494168Y-71052615D01*
X213684644Y-70957377D01*
X213970359Y-70957377D01*
X214160835Y-71052615D01*
X214256073Y-71243091D01*
X214256073Y-72290710D01*
X214256073Y-71243091D02*
X214351311Y-71052615D01*
X214541787Y-70957377D01*
X214827502Y-70957377D01*
X215017978Y-71052615D01*
X215113216Y-71243091D01*
X215113216Y-72290710D01*
X218637025Y-72290710D02*
X217494168Y-72290710D01*
X218065597Y-72290710D02*
X218065597Y-70290710D01*
X217875121Y-70576425D01*
X217684644Y-70766901D01*
X217494168Y-70862139D01*
X200732263Y-73510710D02*
X202065597Y-75510710D01*
X202065597Y-73510710D02*
X200732263Y-75510710D01*
X202827502Y-75510710D02*
X202827502Y-74177377D01*
X202827502Y-73510710D02*
X202732263Y-73605949D01*
X202827502Y-73701187D01*
X202922740Y-73605949D01*
X202827502Y-73510710D01*
X202827502Y-73701187D01*
X204637025Y-75510710D02*
X204637025Y-74463091D01*
X204541787Y-74272615D01*
X204351311Y-74177377D01*
X203970359Y-74177377D01*
X203779882Y-74272615D01*
X204637025Y-75415472D02*
X204446549Y-75510710D01*
X203970359Y-75510710D01*
X203779882Y-75415472D01*
X203684644Y-75224996D01*
X203684644Y-75034520D01*
X203779882Y-74844044D01*
X203970359Y-74748806D01*
X204446549Y-74748806D01*
X204637025Y-74653568D01*
X205589406Y-74177377D02*
X205589406Y-75510710D01*
X205589406Y-74367853D02*
X205684644Y-74272615D01*
X205875121Y-74177377D01*
X206160835Y-74177377D01*
X206351311Y-74272615D01*
X206446549Y-74463091D01*
X206446549Y-75510710D01*
X208256073Y-74177377D02*
X208256073Y-75796425D01*
X208160835Y-75986901D01*
X208065597Y-76082139D01*
X207875121Y-76177377D01*
X207589406Y-76177377D01*
X207398930Y-76082139D01*
X208256073Y-75415472D02*
X208065597Y-75510710D01*
X207684644Y-75510710D01*
X207494168Y-75415472D01*
X207398930Y-75320234D01*
X207303692Y-75129758D01*
X207303692Y-74558329D01*
X207398930Y-74367853D01*
X207494168Y-74272615D01*
X207684644Y-74177377D01*
X208065597Y-74177377D01*
X208256073Y-74272615D01*
X209017978Y-74177377D02*
X209494168Y-75510710D01*
X209970359Y-74177377D02*
X209494168Y-75510710D01*
X209303692Y-75986901D01*
X209208454Y-76082139D01*
X209017978Y-76177377D01*
X211589406Y-74177377D02*
X211589406Y-75510710D01*
X210732263Y-74177377D02*
X210732263Y-75224996D01*
X210827502Y-75415472D01*
X211017978Y-75510710D01*
X211303692Y-75510710D01*
X211494168Y-75415472D01*
X211589406Y-75320234D01*
X215113216Y-73605949D02*
X214922740Y-73510710D01*
X214637025Y-73510710D01*
X214351311Y-73605949D01*
X214160835Y-73796425D01*
X214065597Y-73986901D01*
X213970359Y-74367853D01*
X213970359Y-74653568D01*
X214065597Y-75034520D01*
X214160835Y-75224996D01*
X214351311Y-75415472D01*
X214637025Y-75510710D01*
X214827502Y-75510710D01*
X215113216Y-75415472D01*
X215208454Y-75320234D01*
X215208454Y-74653568D01*
X214827502Y-74653568D01*
X216922740Y-74177377D02*
X216922740Y-75510710D01*
X216065597Y-74177377D02*
X216065597Y-75224996D01*
X216160835Y-75415472D01*
X216351311Y-75510710D01*
X216637025Y-75510710D01*
X216827502Y-75415472D01*
X216922740Y-75320234D01*
X218160835Y-75510710D02*
X217970359Y-75415472D01*
X217875121Y-75320234D01*
X217779882Y-75129758D01*
X217779882Y-74558329D01*
X217875121Y-74367853D01*
X217970359Y-74272615D01*
X218160835Y-74177377D01*
X218446549Y-74177377D01*
X218637025Y-74272615D01*
X218732263Y-74367853D01*
X218827502Y-74558329D01*
X218827502Y-75129758D01*
X218732263Y-75320234D01*
X218637025Y-75415472D01*
X218446549Y-75510710D01*
X218160835Y-75510710D01*
X202875121Y-76730710D02*
X204208454Y-78730710D01*
X204208454Y-76730710D02*
X202875121Y-78730710D01*
X204970359Y-78730710D02*
X204970359Y-77397377D01*
X204970359Y-76730710D02*
X204875121Y-76825949D01*
X204970359Y-76921187D01*
X205065597Y-76825949D01*
X204970359Y-76730710D01*
X204970359Y-76921187D01*
X205922740Y-77397377D02*
X205922740Y-78730710D01*
X205922740Y-77587853D02*
X206017978Y-77492615D01*
X206208454Y-77397377D01*
X206494168Y-77397377D01*
X206684644Y-77492615D01*
X206779882Y-77683091D01*
X206779882Y-78730710D01*
X207446549Y-77397377D02*
X208208454Y-77397377D01*
X207732263Y-76730710D02*
X207732263Y-78444996D01*
X207827502Y-78635472D01*
X208017978Y-78730710D01*
X208208454Y-78730710D01*
X208875121Y-78730710D02*
X208875121Y-77397377D01*
X208875121Y-76730710D02*
X208779882Y-76825949D01*
X208875121Y-76921187D01*
X208970359Y-76825949D01*
X208875121Y-76730710D01*
X208875121Y-76921187D01*
X209827502Y-77397377D02*
X209827502Y-78730710D01*
X209827502Y-77587853D02*
X209922740Y-77492615D01*
X210113216Y-77397377D01*
X210398930Y-77397377D01*
X210589406Y-77492615D01*
X210684644Y-77683091D01*
X210684644Y-78730710D01*
X212494168Y-77397377D02*
X212494168Y-79016425D01*
X212398930Y-79206901D01*
X212303692Y-79302139D01*
X212113216Y-79397377D01*
X211827502Y-79397377D01*
X211637025Y-79302139D01*
X212494168Y-78635472D02*
X212303692Y-78730710D01*
X211922740Y-78730710D01*
X211732263Y-78635472D01*
X211637025Y-78540234D01*
X211541787Y-78349758D01*
X211541787Y-77778329D01*
X211637025Y-77587853D01*
X211732263Y-77492615D01*
X211922740Y-77397377D01*
X212303692Y-77397377D01*
X212494168Y-77492615D01*
X215922740Y-78730710D02*
X214970359Y-78730710D01*
X214970359Y-76730710D01*
X216589406Y-78730710D02*
X216589406Y-77397377D01*
X216589406Y-76730710D02*
X216494168Y-76825949D01*
X216589406Y-76921187D01*
X216684644Y-76825949D01*
X216589406Y-76730710D01*
X216589406Y-76921187D01*
X201589406Y-79950710D02*
X201589406Y-81379282D01*
X201494168Y-81664996D01*
X201303692Y-81855472D01*
X201017978Y-81950710D01*
X200827502Y-81950710D01*
X202541787Y-81950710D02*
X202541787Y-80617377D01*
X202541787Y-79950710D02*
X202446549Y-80045949D01*
X202541787Y-80141187D01*
X202637025Y-80045949D01*
X202541787Y-79950710D01*
X202541787Y-80141187D01*
X204351311Y-81950710D02*
X204351311Y-80903091D01*
X204256073Y-80712615D01*
X204065597Y-80617377D01*
X203684644Y-80617377D01*
X203494168Y-80712615D01*
X204351311Y-81855472D02*
X204160835Y-81950710D01*
X203684644Y-81950710D01*
X203494168Y-81855472D01*
X203398930Y-81664996D01*
X203398930Y-81474520D01*
X203494168Y-81284044D01*
X203684644Y-81188806D01*
X204160835Y-81188806D01*
X204351311Y-81093568D01*
X205113216Y-81950710D02*
X206160835Y-80617377D01*
X205113216Y-80617377D02*
X206160835Y-81950710D01*
X207779882Y-80617377D02*
X207779882Y-81950710D01*
X206922740Y-80617377D02*
X206922740Y-81664996D01*
X207017978Y-81855472D01*
X207208454Y-81950710D01*
X207494168Y-81950710D01*
X207684644Y-81855472D01*
X207779882Y-81760234D01*
X209589406Y-81950710D02*
X209589406Y-80903091D01*
X209494168Y-80712615D01*
X209303692Y-80617377D01*
X208922740Y-80617377D01*
X208732263Y-80712615D01*
X209589406Y-81855472D02*
X209398930Y-81950710D01*
X208922740Y-81950710D01*
X208732263Y-81855472D01*
X208637025Y-81664996D01*
X208637025Y-81474520D01*
X208732263Y-81284044D01*
X208922740Y-81188806D01*
X209398930Y-81188806D01*
X209589406Y-81093568D01*
X210541787Y-80617377D02*
X210541787Y-81950710D01*
X210541787Y-80807853D02*
X210637025Y-80712615D01*
X210827502Y-80617377D01*
X211113216Y-80617377D01*
X211303692Y-80712615D01*
X211398930Y-80903091D01*
X211398930Y-81950710D01*
X213875121Y-81950710D02*
X213875121Y-79950710D01*
X213875121Y-80903091D02*
X215017978Y-80903091D01*
X215017978Y-81950710D02*
X215017978Y-79950710D01*
X216827502Y-81950710D02*
X216827502Y-80903091D01*
X216732263Y-80712615D01*
X216541787Y-80617377D01*
X216160835Y-80617377D01*
X215970359Y-80712615D01*
X216827502Y-81855472D02*
X216637025Y-81950710D01*
X216160835Y-81950710D01*
X215970359Y-81855472D01*
X215875121Y-81664996D01*
X215875121Y-81474520D01*
X215970359Y-81284044D01*
X216160835Y-81188806D01*
X216637025Y-81188806D01*
X216827502Y-81093568D01*
X217779882Y-80617377D02*
X217779882Y-81950710D01*
X217779882Y-80807853D02*
X217875121Y-80712615D01*
X218065597Y-80617377D01*
X218351311Y-80617377D01*
X218541787Y-80712615D01*
X218637025Y-80903091D01*
X218637025Y-81950710D01*
X201160835Y-83170710D02*
X202494168Y-85170710D01*
X202494168Y-83170710D02*
X201160835Y-85170710D01*
X203256073Y-85170710D02*
X203256073Y-83837377D01*
X203256073Y-83170710D02*
X203160835Y-83265949D01*
X203256073Y-83361187D01*
X203351311Y-83265949D01*
X203256073Y-83170710D01*
X203256073Y-83361187D01*
X204208454Y-83837377D02*
X204208454Y-85170710D01*
X204208454Y-84027853D02*
X204303692Y-83932615D01*
X204494168Y-83837377D01*
X204779882Y-83837377D01*
X204970359Y-83932615D01*
X205065597Y-84123091D01*
X205065597Y-85170710D01*
X205827502Y-83837377D02*
X206303692Y-85170710D01*
X206779882Y-83837377D02*
X206303692Y-85170710D01*
X206113216Y-85646901D01*
X206017978Y-85742139D01*
X205827502Y-85837377D01*
X208398930Y-83837377D02*
X208398930Y-85170710D01*
X207541787Y-83837377D02*
X207541787Y-84884996D01*
X207637025Y-85075472D01*
X207827502Y-85170710D01*
X208113216Y-85170710D01*
X208303692Y-85075472D01*
X208398930Y-84980234D01*
X210208454Y-85170710D02*
X210208454Y-84123091D01*
X210113216Y-83932615D01*
X209922740Y-83837377D01*
X209541787Y-83837377D01*
X209351311Y-83932615D01*
X210208454Y-85075472D02*
X210017978Y-85170710D01*
X209541787Y-85170710D01*
X209351311Y-85075472D01*
X209256073Y-84884996D01*
X209256073Y-84694520D01*
X209351311Y-84504044D01*
X209541787Y-84408806D01*
X210017978Y-84408806D01*
X210208454Y-84313568D01*
X211160835Y-83837377D02*
X211160835Y-85170710D01*
X211160835Y-84027853D02*
X211256073Y-83932615D01*
X211446549Y-83837377D01*
X211732263Y-83837377D01*
X211922740Y-83932615D01*
X212017978Y-84123091D01*
X212017978Y-85170710D01*
X215637025Y-84980234D02*
X215541787Y-85075472D01*
X215256073Y-85170710D01*
X215065597Y-85170710D01*
X214779882Y-85075472D01*
X214589406Y-84884996D01*
X214494168Y-84694520D01*
X214398930Y-84313568D01*
X214398930Y-84027853D01*
X214494168Y-83646901D01*
X214589406Y-83456425D01*
X214779882Y-83265949D01*
X215065597Y-83170710D01*
X215256073Y-83170710D01*
X215541787Y-83265949D01*
X215637025Y-83361187D01*
X217351311Y-85170710D02*
X217351311Y-84123091D01*
X217256073Y-83932615D01*
X217065597Y-83837377D01*
X216684644Y-83837377D01*
X216494168Y-83932615D01*
X217351311Y-85075472D02*
X217160835Y-85170710D01*
X216684644Y-85170710D01*
X216494168Y-85075472D01*
X216398930Y-84884996D01*
X216398930Y-84694520D01*
X216494168Y-84504044D01*
X216684644Y-84408806D01*
X217160835Y-84408806D01*
X217351311Y-84313568D01*
X218303692Y-85170710D02*
X218303692Y-83837377D01*
X218303692Y-83170710D02*
X218208454Y-83265949D01*
X218303692Y-83361187D01*
X218398930Y-83265949D01*
X218303692Y-83170710D01*
X218303692Y-83361187D01*
D11*
%TO.C,J3*%
X210513882Y-121847282D02*
X211228168Y-121847282D01*
X211371025Y-121894901D01*
X211466263Y-121990139D01*
X211513882Y-122132996D01*
X211513882Y-122228234D01*
X210513882Y-121466329D02*
X210513882Y-120847282D01*
X210894835Y-121180615D01*
X210894835Y-121037758D01*
X210942454Y-120942520D01*
X210990073Y-120894901D01*
X211085311Y-120847282D01*
X211323406Y-120847282D01*
X211418644Y-120894901D01*
X211466263Y-120942520D01*
X211513882Y-121037758D01*
X211513882Y-121323472D01*
X211466263Y-121418710D01*
X211418644Y-121466329D01*
%TO.C,R1*%
X194855882Y-100492615D02*
X194379692Y-100825949D01*
X194855882Y-101064044D02*
X193855882Y-101064044D01*
X193855882Y-100683091D01*
X193903502Y-100587853D01*
X193951121Y-100540234D01*
X194046359Y-100492615D01*
X194189216Y-100492615D01*
X194284454Y-100540234D01*
X194332073Y-100587853D01*
X194379692Y-100683091D01*
X194379692Y-101064044D01*
X194855882Y-99540234D02*
X194855882Y-100111663D01*
X194855882Y-99825949D02*
X193855882Y-99825949D01*
X193998740Y-99921187D01*
X194093978Y-100016425D01*
X194141597Y-100111663D01*
%TO.C,J1*%
X189185168Y-84248329D02*
X189185168Y-84962615D01*
X189137549Y-85105472D01*
X189042311Y-85200710D01*
X188899454Y-85248329D01*
X188804216Y-85248329D01*
X190185168Y-85248329D02*
X189613740Y-85248329D01*
X189899454Y-85248329D02*
X189899454Y-84248329D01*
X189804216Y-84391187D01*
X189708978Y-84486425D01*
X189613740Y-84534044D01*
%TO.C,J4*%
X111700168Y-76828329D02*
X111700168Y-77542615D01*
X111652549Y-77685472D01*
X111557311Y-77780710D01*
X111414454Y-77828329D01*
X111319216Y-77828329D01*
X112604930Y-77161663D02*
X112604930Y-77828329D01*
X112366835Y-76780710D02*
X112128740Y-77494996D01*
X112747787Y-77494996D01*
%TO.C,R2*%
X194936835Y-106368329D02*
X194603502Y-105892139D01*
X194365406Y-106368329D02*
X194365406Y-105368329D01*
X194746359Y-105368329D01*
X194841597Y-105415949D01*
X194889216Y-105463568D01*
X194936835Y-105558806D01*
X194936835Y-105701663D01*
X194889216Y-105796901D01*
X194841597Y-105844520D01*
X194746359Y-105892139D01*
X194365406Y-105892139D01*
X195317787Y-105463568D02*
X195365406Y-105415949D01*
X195460644Y-105368329D01*
X195698740Y-105368329D01*
X195793978Y-105415949D01*
X195841597Y-105463568D01*
X195889216Y-105558806D01*
X195889216Y-105654044D01*
X195841597Y-105796901D01*
X195270168Y-106368329D01*
X195889216Y-106368329D01*
D12*
%TO.C,J3*%
X212751502Y-121983949D02*
X212151502Y-121983949D01*
X216641502Y-122533949D02*
X216641502Y-120493949D01*
X218171502Y-122533949D02*
X217171502Y-122533949D01*
X218171502Y-124163949D02*
X218171502Y-118863949D01*
X216641502Y-120493949D02*
X217171502Y-120243949D01*
X212751502Y-119443949D02*
X212151502Y-119443949D01*
X217171502Y-122783949D02*
X217171502Y-120243949D01*
X213181502Y-124453949D02*
X217181502Y-124453949D01*
X218171502Y-120493949D02*
X217171502Y-120493949D01*
X212751502Y-121043949D02*
X212751502Y-119443949D01*
X217171502Y-120243949D02*
X218171502Y-120243949D01*
X212151502Y-124163949D02*
X218171502Y-124163949D01*
X212151502Y-121043949D02*
X212751502Y-121043949D01*
X212751502Y-123583949D02*
X212751502Y-121983949D01*
X218171502Y-122783949D02*
X217171502Y-122783949D01*
X218171502Y-118863949D02*
X212151502Y-118863949D01*
X212151502Y-118863949D02*
X212151502Y-124163949D01*
X212151502Y-123583949D02*
X212751502Y-123583949D01*
X217171502Y-122783949D02*
X216641502Y-122533949D01*
%TO.C,R1*%
X195318502Y-100553013D02*
X195318502Y-100098885D01*
X196788502Y-100553013D02*
X196788502Y-100098885D01*
%TO.C,J1*%
X186918502Y-85795949D02*
X188248502Y-85795949D01*
X186918502Y-108775949D02*
X192118502Y-108775949D01*
X189518502Y-85795949D02*
X192118502Y-85795949D01*
X186918502Y-88395949D02*
X189518502Y-88395949D01*
X186918502Y-88395949D02*
X186918502Y-108775949D01*
X189518502Y-88395949D02*
X189518502Y-85795949D01*
X186918502Y-87125949D02*
X186918502Y-85795949D01*
X192118502Y-85795949D02*
X192118502Y-108775949D01*
%TO.C,J4*%
X90503502Y-82805949D02*
X90373502Y-82805949D01*
X90373502Y-83785949D02*
X108113502Y-83785949D01*
X115953502Y-83785949D02*
X133693502Y-83785949D01*
X133693502Y-82805949D02*
X133563502Y-82805949D01*
X133563502Y-82805949D02*
X133563502Y-80995949D01*
X90503502Y-80995949D02*
X90503502Y-82805949D01*
X133693502Y-80995949D02*
X133693502Y-78465949D01*
X90073502Y-80575949D02*
X90073502Y-78165949D01*
X90073502Y-78165949D02*
X92483502Y-78165949D01*
X115953502Y-85285949D02*
X115953502Y-83785949D01*
X108113502Y-83785949D02*
X108113502Y-85285949D01*
X90373502Y-78465949D02*
X90373502Y-80995949D01*
X133563502Y-80995949D02*
X133693502Y-80995949D01*
X90373502Y-82805949D02*
X90373502Y-83785949D01*
X133693502Y-78465949D02*
X90373502Y-78465949D01*
X90373502Y-80995949D02*
X90503502Y-80995949D01*
X108113502Y-85285949D02*
X115953502Y-85285949D01*
X133693502Y-83785949D02*
X133693502Y-82805949D01*
%TO.C,R2*%
X195330566Y-105000949D02*
X194876438Y-105000949D01*
X195330566Y-103530949D02*
X194876438Y-103530949D01*
%TD*%
M02*
