%TF.GenerationSoftware,KiCad,Pcbnew,(6.0.4)*%
%TF.CreationDate,2023-03-10T15:04:28-05:00*%
%TF.ProjectId,Pi_part,50695f70-6172-4742-9e6b-696361645f70,v01*%
%TF.SameCoordinates,Original*%
%TF.FileFunction,Soldermask,Top*%
%TF.FilePolarity,Negative*%
%FSLAX46Y46*%
G04 Gerber Fmt 4.6, Leading zero omitted, Abs format (unit mm)*
G04 Created by KiCad (PCBNEW (6.0.4)) date 2023-03-10 15:04:28*
%MOMM*%
%LPD*%
G01*
G04 APERTURE LIST*
G04 Aperture macros list*
%AMRoundRect*
0 Rectangle with rounded corners*
0 $1 Rounding radius*
0 $2 $3 $4 $5 $6 $7 $8 $9 X,Y pos of 4 corners*
0 Add a 4 corners polygon primitive as box body*
4,1,4,$2,$3,$4,$5,$6,$7,$8,$9,$2,$3,0*
0 Add four circle primitives for the rounded corners*
1,1,$1+$1,$2,$3*
1,1,$1+$1,$4,$5*
1,1,$1+$1,$6,$7*
1,1,$1+$1,$8,$9*
0 Add four rect primitives between the rounded corners*
20,1,$1+$1,$2,$3,$4,$5,0*
20,1,$1+$1,$4,$5,$6,$7,0*
20,1,$1+$1,$6,$7,$8,$9,0*
20,1,$1+$1,$8,$9,$2,$3,0*%
G04 Aperture macros list end*
%ADD10RoundRect,0.300800X0.845000X-0.620000X0.845000X0.620000X-0.845000X0.620000X-0.845000X-0.620000X0*%
%ADD11O,2.291600X1.841600*%
%ADD12RoundRect,0.300800X0.450000X-0.350000X0.450000X0.350000X-0.450000X0.350000X-0.450000X-0.350000X0*%
%ADD13RoundRect,0.050800X-0.850000X-0.850000X0.850000X-0.850000X0.850000X0.850000X-0.850000X0.850000X0*%
%ADD14O,1.801600X1.801600*%
%ADD15RoundRect,0.300800X-0.620000X-0.620000X0.620000X-0.620000X0.620000X0.620000X-0.620000X0.620000X0*%
%ADD16C,1.841600*%
%ADD17RoundRect,0.300800X0.350000X0.450000X-0.350000X0.450000X-0.350000X-0.450000X0.350000X-0.450000X0*%
%ADD18RoundRect,0.300800X0.600000X-0.600000X0.600000X0.600000X-0.600000X0.600000X-0.600000X-0.600000X0*%
%ADD19C,1.801600*%
%ADD20C,0.863600*%
G04 APERTURE END LIST*
D10*
%TO.C,J3*%
X215181502Y-122783949D03*
D11*
X215181502Y-120243949D03*
%TD*%
D12*
%TO.C,R1*%
X196053502Y-101325949D03*
X196053502Y-99325949D03*
%TD*%
D13*
%TO.C,J1*%
X188248502Y-87125949D03*
D14*
X190788502Y-87125949D03*
X188248502Y-89665949D03*
X190788502Y-89665949D03*
X188248502Y-92205949D03*
X190788502Y-92205949D03*
X188248502Y-94745949D03*
X190788502Y-94745949D03*
X188248502Y-97285949D03*
X190788502Y-97285949D03*
X188248502Y-99825949D03*
X190788502Y-99825949D03*
X188248502Y-102365949D03*
X190788502Y-102365949D03*
X188248502Y-104905949D03*
X190788502Y-104905949D03*
X188248502Y-107445949D03*
X190788502Y-107445949D03*
%TD*%
D15*
%TO.C,J4*%
X92983502Y-81125949D03*
D16*
X95523502Y-81125949D03*
X98063502Y-81125949D03*
X100603502Y-81125949D03*
X103143502Y-81125949D03*
X105683502Y-81125949D03*
X108223502Y-81125949D03*
X110763502Y-81125949D03*
X113303502Y-81125949D03*
X115843502Y-81125949D03*
X118383502Y-81125949D03*
X120923502Y-81125949D03*
X123463502Y-81125949D03*
X126003502Y-81125949D03*
X128543502Y-81125949D03*
X131083502Y-81125949D03*
%TD*%
D17*
%TO.C,R2*%
X196103502Y-104265949D03*
X194103502Y-104265949D03*
%TD*%
D18*
%TO.C,J2*%
X140973502Y-118225949D03*
D19*
X140973502Y-115685949D03*
X138433502Y-118225949D03*
X138433502Y-115685949D03*
X135893502Y-118225949D03*
X135893502Y-115685949D03*
X133353502Y-118225949D03*
X133353502Y-115685949D03*
X130813502Y-118225949D03*
X130813502Y-115685949D03*
X128273502Y-118225949D03*
X128273502Y-115685949D03*
X125733502Y-118225949D03*
X125733502Y-115685949D03*
X123193502Y-118225949D03*
X123193502Y-115685949D03*
X120653502Y-118225949D03*
X120653502Y-115685949D03*
X118113502Y-118225949D03*
X118113502Y-115685949D03*
X115573502Y-118225949D03*
X115573502Y-115685949D03*
X113033502Y-118225949D03*
X113033502Y-115685949D03*
X110493502Y-118225949D03*
X110493502Y-115685949D03*
X107953502Y-118225949D03*
X107953502Y-115685949D03*
X105413502Y-118225949D03*
X105413502Y-115685949D03*
X102873502Y-118225949D03*
X102873502Y-115685949D03*
X100333502Y-118225949D03*
X100333502Y-115685949D03*
X97793502Y-118225949D03*
X97793502Y-115685949D03*
X95253502Y-118225949D03*
X95253502Y-115685949D03*
X92713502Y-118225949D03*
X92713502Y-115685949D03*
%TD*%
D20*
X170283502Y-87185949D03*
X185183502Y-112875949D03*
X195473502Y-112875949D03*
X129883502Y-101735949D03*
X135023502Y-89695949D03*
X111703502Y-127415949D03*
X118533502Y-123375949D03*
X142133502Y-94735949D03*
X185953502Y-124465949D03*
X118183502Y-108955949D03*
X142763502Y-108935949D03*
X155083502Y-108935949D03*
X136203502Y-108945949D03*
X147783502Y-104905949D03*
M02*
